<svg width="300" height="300" viewBox="0 0 300 300" fill="none" xmlns="http://www.w3.org/2000/svg">
<path d="M217.932 18.2024C222.982 18.2024 227.649 20.8965 230.174 25.27L298.106 142.932C300.631 147.306 300.631 152.694 298.106 157.068L230.174 274.73C227.649 279.103 222.982 281.798 217.932 281.798H82.0676C77.0176 281.798 72.3512 279.103 69.8262 274.73L1.89375 157.068C-0.631248 152.694 -0.631251 147.306 1.89375 142.932L69.8262 25.27C72.3512 20.8965 77.0176 18.2024 82.0676 18.2024L217.932 18.2024Z" fill="#439BA7"/>
<path d="M271.156 96.2532L85.6131 281.797H85.4529C78.3078 281.797 71.7052 277.985 68.1326 271.797L50.7478 241.687L243.714 48.7209L271.156 96.2532ZM298.221 144.162C299.82 149.4 299.217 155.143 296.413 160L231.867 271.797C228.294 277.985 221.691 281.797 214.546 281.797H160.588L298.221 144.162ZM23.3054 194.155L3.58669 160C0.0140519 153.812 0.0140953 146.188 3.58669 140L5.08962 137.396L124.284 18.2024H199.259L23.3054 194.155Z" fill="#A6CDD3"/>
</svg>
