<svg width="128" height="129" viewBox="0 0 128 129" fill="none" xmlns="http://www.w3.org/2000/svg">
<g clip-path="url(#clip0_536_4424)">
<path d="M85.096 21.426C87.4313 21.426 89.5892 22.6718 90.7568 24.6943L111.852 61.2327C113.02 63.2551 113.02 65.7468 111.852 67.7692L90.7568 104.308C89.5892 106.33 87.4313 107.576 85.096 107.576L42.9051 107.576C40.5698 107.576 38.4119 106.33 37.2443 104.308L16.1488 67.7692C14.9812 65.7468 14.9812 63.2551 16.1488 61.2327L37.2443 24.6943C38.4119 22.6718 40.5698 21.426 42.9051 21.426L85.096 21.426Z" fill="#439BA7"/>
<path d="M103.597 46.9326L42.9558 107.574H42.905C40.5697 107.574 38.4115 106.328 37.2439 104.306L31.5623 94.4639L94.6277 31.3984L103.597 46.9326ZM112.44 62.5938C112.962 64.3052 112.769 66.1805 111.852 67.7676L90.7566 104.306C89.589 106.328 87.4315 107.574 85.0964 107.574H67.4597L112.44 62.5938ZM22.5935 78.9297L16.1492 67.7676C14.9815 65.7452 14.9815 63.2529 16.1492 61.2305L16.6394 60.3799L55.5964 21.4238H80.0994L22.5935 78.9297Z" fill="#A6CDD3"/>
</g>
<defs>
<clipPath id="clip0_536_4424">
<rect y="0.5" width="128" height="128" rx="64" fill="white"/>
</clipPath>
</defs>
</svg>
