<?xml version="1.0" encoding="utf-8"?>
<!-- Generator: Adobe Illustrator 27.5.0, SVG Export Plug-In . SVG Version: 6.00 Build 0)  -->
<svg version="1.1" id="Layer_1" xmlns="http://www.w3.org/2000/svg" xmlns:xlink="http://www.w3.org/1999/xlink" x="0px" y="0px"
	 viewBox="0 0 90 37" style="enable-background:new 0 0 90 37;" xml:space="preserve">
<g>
	<polygon points="11.3,31 4.3,33.5 4.5,26.1 0,20.2 7.1,18.1 11.3,12 15.5,18.1 22.6,20.2 18.1,26.1 18.3,33.5 	"/>
	<polygon points="78.7,31 71.7,33.5 71.9,26.1 67.4,20.2 74.5,18.1 78.7,12 82.9,18.1 90,20.2 85.5,26.1 85.7,33.5 	"/>
	<polygon points="45,32.7 33,37 33.3,24.2 25.6,14.1 37.8,10.5 45,0 52.2,10.5 64.4,14.1 56.7,24.2 57,37 	"/>
</g>
</svg>
