<?xml version="1.0" encoding="utf-8"?>
<!-- Generator: Adobe Illustrator 27.5.0, SVG Export Plug-In . SVG Version: 6.00 Build 0)  -->
<svg version="1.1" id="Layer_1" xmlns="http://www.w3.org/2000/svg" xmlns:xlink="http://www.w3.org/1999/xlink" x="0px" y="0px"
	 viewBox="0 0 96.8 99.3" style="enable-background:new 0 0 96.8 99.3;" xml:space="preserve">
<path d="M43,84.1l52.8-30.7l-5.7-3.3L43,77.5l-7.9-4.6l0,0L6,56.2v-7.7l26,15l0,0l11,6.3l52.8-30.7l-5.7-3.3L43,63.2l-7.9-4.6l0,0
	l-29-16.7v-7.7l36.8,21.3l52.8-30.7L52.9,0L0,30.7l0,0l0,0l0,0l0,0V45l0,0l0,0l0,0v14.3l0,0l0,0l0,0v14.3l0,0L32,92l0,0l11,6.3
	l52.8-30.7l-5.7-3.3L43,91.8l-7.9-4.6l0,0l-29-16.7v-7.7l26,15l0,0L43,84.1z M37.3,28.5c1.6-0.8,3.1-1.2,4.4-1.4
	c1.8-0.2,4.3-0.1,7.6,0.2c1.6,0.2,3.2,0.2,4.7,0s2.8-0.7,4-1.3c1.2-0.7,1.9-1.5,2-2.3s-0.5-1.6-1.7-2.3c-1-0.6-2.1-0.9-3.4-0.9
	c-0.8,0-1.6,0.1-2.4,0.3c-0.9,0.3-2.1,0.2-2.9-0.3l0,0l-4.7-2.8c-0.6-0.4-0.6-0.9,0.1-1.2c2.7-1.4,5.6-1.9,8.8-1.7
	c3.6,0.3,7,1.4,10.3,3.3c3.5,2,5.4,4.2,5.7,6.4c0.3,2.2-1.1,4.2-4.1,5.9c-1.8,1.1-4.1,1.7-6.8,2s-5.3,0.2-7.9-0.3
	c-1.6-0.2-2.9-0.2-3.9,0.1c-0.7,0.2-1.5,0.4-2.3,0.8c-0.6,0.3-1.6,0.3-2.2-0.1l-5.2-3C36.6,29.5,36.6,28.8,37.3,28.5z M28.5,33.6
	l2.7-1.6c0.9-0.5,2.4-0.5,3.3,0l4.2,2.4c0.9,0.5,0.9,1.4,0,1.9L36,37.9c-0.9,0.5-2.4,0.5-3.3,0l-4.2-2.4
	C27.6,35,27.6,34.1,28.5,33.6z"/>
</svg>
