<?xml version="1.0" encoding="utf-8"?>
<!-- Generator: Adobe Illustrator 27.5.0, SVG Export Plug-In . SVG Version: 6.00 Build 0)  -->
<svg version="1.1" id="Layer_1" xmlns="http://www.w3.org/2000/svg" xmlns:xlink="http://www.w3.org/1999/xlink" x="0px" y="0px"
	 viewBox="0 0 62.2 90" style="enable-background:new 0 0 62.2 90;" xml:space="preserve">
<path d="M62.2,14.9v64.9c0,0.9-0.8,1.7-1.7,1.7c-0.9,0-1.7-0.8-1.7-1.7V16.2l-2.1-0.6l-34.4-10l-7-2l-2.7,2L7.3,9.7l-3.7,2.8
	l3.7,1.1L47,25.2V90l-10.8-3.1l-29-8.4L0,76.4V12.4c-0.2-0.7,0-1.4,0.6-1.9L14,0.3c0.4-0.3,1-0.4,1.5-0.3l19.1,5.6l22.2,6.4l4.2,1.2
	C61.7,13.5,62.2,14.2,62.2,14.9z M10.2,11.5l40,10.9v62l5.3-3.6V18.7L16,7.1L10.2,11.5z"/>
</svg>
