<?xml version="1.0" encoding="utf-8"?>
<!-- Generator: Adobe Illustrator 27.5.0, SVG Export Plug-In . SVG Version: 6.00 Build 0)  -->
<svg version="1.1" id="Layer_1" xmlns="http://www.w3.org/2000/svg" xmlns:xlink="http://www.w3.org/1999/xlink" x="0px" y="0px"
	 viewBox="0 0 656.3 667.5" style="enable-background:new 0 0 656.3 667.5;" xml:space="preserve">
<path d="M331.1,0C151.4,0,5.8,145.6,5.8,325.3c0,82.4,30.7,157.7,81.3,215c1.2,5.2,2.4,12,2.3,18.6c-0.1,10.8-2.5,18.3-7.7,23.5
	c-5.2,5.2-18.1,13.5-52.4,13.6c-6.8,0-14.4-0.3-22.8-1l-6.4,71c10.3,0.9,20,1.6,29.3,1.6c0.3,0,0.5,0,0.8,0
	c44.9,0,79.6-12.1,102.2-34.9c10.5-10.6,17.3-22.7,21.6-34.6c51,33.2,111.8,52.6,177.2,52.6c179.7,0,325.3-145.6,325.3-325.3
	C656.3,145.6,510.7,0,331.1,0z M153.2,416.8c-44.2,0-80.1-41-80.1-91.5s35.8-91.5,80.1-91.5c44.2,0,80.1,41,80.1,91.5
	S197.4,416.8,153.2,416.8z M331.1,583.2c-50.5,0-91.5-35.8-91.5-80.1s41-80.1,91.5-80.1s91.5,35.8,91.5,80.1
	S381.6,583.2,331.1,583.2z M287,325.3c0-24.3,19.7-44,44-44s44,19.7,44,44c0,24.3-19.7,44-44,44S287,349.6,287,325.3z M331.1,227.4
	c-50.5,0-91.5-35.8-91.5-80.1s41-80.1,91.5-80.1s91.5,35.8,91.5,80.1S381.6,227.4,331.1,227.4z M508.9,416.8c-44.2,0-80-41-80-91.5
	s35.8-91.5,80-91.5c44.2,0,80,41,80,91.5S553.2,416.8,508.9,416.8z"/>
</svg>
