<?xml version="1.0" encoding="utf-8"?>
<!-- Generator: Adobe Illustrator 27.5.0, SVG Export Plug-In . SVG Version: 6.00 Build 0)  -->
<svg version="1.1" xmlns="http://www.w3.org/2000/svg" xmlns:xlink="http://www.w3.org/1999/xlink" x="0px" y="0px"
	 viewBox="0 0 95 95" style="enable-background:new 0 0 95 95;" xml:space="preserve">
<g id="Layer_2">
</g>
<g id="Layer_1">
	<path d="M47.5,0C21.3,0,0,21.3,0,47.5S21.3,95,47.5,95S95,73.7,95,47.5S73.7,0,47.5,0z M47.5,61.9c5.7,0,10.6-3.3,12.9-8.1h12
		c-2.8,11.1-12.9,19.4-24.9,19.4c-14.2,0-25.7-11.5-25.7-25.7s11.5-25.7,25.7-25.7c12,0,22.1,8.3,24.9,19.5h-12
		c-2.3-4.8-7.2-8.1-12.9-8.1c-7.9,0-14.4,6.5-14.4,14.4S39.6,61.9,47.5,61.9z"/>
</g>
</svg>
