<?xml version="1.0" encoding="utf-8"?>
<!-- Generator: Adobe Illustrator 27.5.0, SVG Export Plug-In . SVG Version: 6.00 Build 0)  -->
<svg version="1.1" id="Layer_1" xmlns="http://www.w3.org/2000/svg" xmlns:xlink="http://www.w3.org/1999/xlink" x="0px" y="0px"
	 viewBox="0 0 91.5 91.5" style="enable-background:new 0 0 91.5 91.5;" xml:space="preserve">
<path d="M45.8,0C20.5,0,0,20.5,0,45.8s20.5,45.8,45.8,45.8S91.5,71,91.5,45.8S71,0,45.8,0z M45.7,72.1c-2.9,0-5.3-2.4-5.3-5.3
	s2.4-5.3,5.3-5.3s5.3,2.4,5.3,5.3S48.6,72.1,45.7,72.1z M57.1,45.5c-3,2.2-6.2,4.1-6.9,8.2v2.7h-9.4v-3.1c0.4-6.1,3.3-8.8,6.1-11
	c2.7-2.2,5.1-3.8,5.1-7.6c0-4.3-2.2-6.3-5.9-6.3c-5,0-7.1,4.1-7.2,9.1H28.5c0.2-10,6.8-17.3,17-17.3c13.2,0,17.4,8.1,17.4,13.5
	C63,40.5,60.1,43.2,57.1,45.5z"/>
</svg>
