<?xml version="1.0" encoding="utf-8"?>
<!-- Generator: Adobe Illustrator 27.5.0, SVG Export Plug-In . SVG Version: 6.00 Build 0)  -->
<svg version="1.1" id="Layer_1" xmlns="http://www.w3.org/2000/svg" xmlns:xlink="http://www.w3.org/1999/xlink" x="0px" y="0px"
	 viewBox="0 0 120 120" style="enable-background:new 0 0 120 120;" xml:space="preserve">
<path d="M109.4,19.3c0-6-6.8-6.1-18.6,6.3L87,19.1c-0.9-1.6-2.5-2.5-4.3-2.5H37.5c-1.8,0-3.4,1-4.3,2.5l-3.9,6.7
	c-11.9-12.6-18.7-12.5-18.7-6.5c0,6.7-4.3,38.1-0.1,43.6c0,0,0,0.1,0.1,0.1l22.6,42c0.9,1.6,2.5,2.5,4.3,2.5h45.2
	c1.8,0,3.4-1,4.3-2.5l22.6-42c0.3-0.4,0.4-0.9,0.5-1.4C113.2,53.8,109.4,25.6,109.4,19.3z"/>
</svg>
