<svg xmlns="http://www.w3.org/2000/svg" xmlns:xlink="http://www.w3.org/1999/xlink" width="300" height="248" viewBox="0 0 300 248">
  <defs>
    <clipPath id="clip-big_tent_logo_-_black">
      <rect width="300" height="248"/>
    </clipPath>
  </defs>
  <g id="big_tent_logo_-_black" data-name="big tent logo - black" clip-path="url(#clip-big_tent_logo_-_black)">
    <path id="Union_11" data-name="Union 11" d="M-1718.116,5.508V3.332a1.916,1.916,0,0,1,1.972-1.9,1.859,1.859,0,0,1,1.9,1.9V5.508a1.872,1.872,0,0,0,1.836,1.836,1.873,1.873,0,0,0,1.836-1.836V-.748a1.829,1.829,0,0,0-1.836-1.836h-1.9V-9.792a5.577,5.577,0,0,1-3.808-5.3v-13.4a5.645,5.645,0,0,1,5.712-5.644,5.369,5.369,0,0,1,4.284,1.972v-1.5h5.032v1.36h-3.6v17.2a5.517,5.517,0,0,1-3.74,5.3V-6.12a5.6,5.6,0,0,1,3.74,5.372V5.508a5.688,5.688,0,0,1-5.711,5.644A5.688,5.688,0,0,1-1718.116,5.508Zm3.876-34v13.4a1.828,1.828,0,0,0,1.836,1.836,1.829,1.829,0,0,0,1.836-1.836v-13.4a1.829,1.829,0,0,0-1.836-1.836A1.828,1.828,0,0,0-1714.24-28.492Zm162.452,20.741V-9.928a1.96,1.96,0,0,1,1.9-1.972,1.974,1.974,0,0,1,1.972,1.972v2.176a1.828,1.828,0,0,0,1.836,1.836,1.873,1.873,0,0,0,1.836-1.836v-6.8a1.873,1.873,0,0,0-1.836-1.836,5.7,5.7,0,0,1-5.712-5.711v-6.393a5.645,5.645,0,0,1,5.712-5.644,5.645,5.645,0,0,1,5.711,5.644v2.176a1.917,1.917,0,0,1-1.972,1.9,1.859,1.859,0,0,1-1.9-1.9v-2.176a1.873,1.873,0,0,0-1.836-1.836,1.828,1.828,0,0,0-1.836,1.836V-22.1a1.828,1.828,0,0,0,1.836,1.836,5.746,5.746,0,0,1,5.711,5.711v6.8a5.645,5.645,0,0,1-5.711,5.644A5.645,5.645,0,0,1-1551.788-7.752Zm-16.728,0V-28.492a5.645,5.645,0,0,1,5.712-5.644,5.645,5.645,0,0,1,5.712,5.644v13.4h-7.548v7.344a1.829,1.829,0,0,0,1.836,1.836,1.829,1.829,0,0,0,1.836-1.836v-.68a1.9,1.9,0,0,1,1.9-1.9,1.917,1.917,0,0,1,1.973,1.9v.68a5.645,5.645,0,0,1-5.712,5.644A5.645,5.645,0,0,1-1568.516-7.752Zm3.876-20.741V-18.9h3.672v-9.589a1.829,1.829,0,0,0-1.836-1.836A1.829,1.829,0,0,0-1564.64-28.492Zm-21.352,24.48V-28.424a1.888,1.888,0,0,0-1.836-1.9,1.935,1.935,0,0,0-1.836,1.9v25.84h-12.1V-4.148a5.424,5.424,0,0,1-4.284,2.04,5.645,5.645,0,0,1-5.712-5.644V-15.3a5.645,5.645,0,0,1,5.712-5.644h1.836v-7.072a1.873,1.873,0,0,0-1.836-1.836h-1.36a1.859,1.859,0,0,1-1.9-1.9,1.86,1.86,0,0,1,1.9-1.9h1.36a5.688,5.688,0,0,1,5.711,5.644V-3.944h6.8V-32.3h-3.536v-1.36h4.964v1.5a5.466,5.466,0,0,1,4.284-1.972,6.042,6.042,0,0,1,3.808,1.36,5.85,5.85,0,0,1,3.74-1.36,5.7,5.7,0,0,1,5.712,5.712v24.48h3.6v1.36h-7.48v-25.84a1.887,1.887,0,0,0-1.836-1.9,1.888,1.888,0,0,0-1.836,1.9V-4.012a1.946,1.946,0,0,1-1.9,1.9A1.96,1.96,0,0,1-1585.992-4.012Zm-21.9-11.288v7.548a1.828,1.828,0,0,0,1.836,1.836,1.829,1.829,0,0,0,1.836-1.836v-9.384h-1.836A1.828,1.828,0,0,0-1607.888-15.3Zm-20.6,7.548V-44.54a5.645,5.645,0,0,1,5.712-5.644h5.712v8.7a1.917,1.917,0,0,1-1.972,1.9,1.9,1.9,0,0,1-1.9-1.9v-4.9h-1.836a1.829,1.829,0,0,0-1.836,1.836V-7.752a1.829,1.829,0,0,0,1.836,1.836,1.829,1.829,0,0,0,1.836-1.836V-22.168h-.544a1.86,1.86,0,0,1-1.9-1.9,1.86,1.86,0,0,1,1.9-1.9h4.42V-7.752a5.645,5.645,0,0,1-5.712,5.644A5.645,5.645,0,0,1-1628.492-7.752Zm-52.7,0V-28.492a5.645,5.645,0,0,1,5.711-5.644,5.645,5.645,0,0,1,5.712,5.644v13.4h-7.548v7.344a1.829,1.829,0,0,0,1.836,1.836,1.828,1.828,0,0,0,1.836-1.836v-.68a1.9,1.9,0,0,1,1.9-1.9,1.916,1.916,0,0,1,1.972,1.9v.68a5.645,5.645,0,0,1-5.712,5.644A5.645,5.645,0,0,1-1681.192-7.752Zm3.875-20.741V-18.9h3.672v-9.589a1.828,1.828,0,0,0-1.836-1.836A1.829,1.829,0,0,0-1677.317-28.492Zm31.96,25.908V-29.852h-1.563a1.859,1.859,0,0,1-1.9-1.9,1.86,1.86,0,0,1,1.9-1.9h1.563V-96.028c-13.8,3.313-27.006,11.569-35.942,18.186a156.691,156.691,0,0,0-17.639,15.134l-.806.836-1.012-.571c-.275-.157-6.915-4.084-23.388-26.459-4.571-6.209-11.55-9.357-20.743-9.357-8.393,0-17.1,2.657-22.933,4.885a44.873,44.873,0,0,0-6.575,3.121,13.257,13.257,0,0,1-4.168,1.768,4.926,4.926,0,0,1-.936.1c-.983,0-1.328-.416-1.444-.765a1.767,1.767,0,0,1,.659-1.776c.609-.531,62.294-54.105,92.053-77.274a217.367,217.367,0,0,0,33.088-31.651,118.554,118.554,0,0,0,10.262-13.883l1.342-2.269,1.265,2.312a105.77,105.77,0,0,0,9.84,13.842,199.039,199.039,0,0,0,33.089,31.641c30.577,23.412,93.889,76.739,94.514,77.267a1.827,1.827,0,0,1,.426,1.738c-.119.36-.45.788-1.351.788a4.061,4.061,0,0,1-.815-.094,12.017,12.017,0,0,1-3.942-1.782l-.006,0-.008,0a40.772,40.772,0,0,0-6.143-3.11c-5.438-2.214-13.571-4.853-21.442-4.853-8.618,0-15.2,3.139-19.553,9.331a224.877,224.877,0,0,1-16.81,21.583,31.1,31.1,0,0,1-5.154,4.865l-1.129.71h0l-.837-1.039a133.36,133.36,0,0,0-17.4-17.3c-9.413-7.8-23.576-17.1-37.59-17.1a30.747,30.747,0,0,0-4.887.388V-33.66h1.5a1.86,1.86,0,0,1,1.9,1.9,1.859,1.859,0,0,1-1.9,1.9h-1.5V-3.944h3.536v1.36Zm29.32-90.661a94.873,94.873,0,0,1,17.958,12.017,139.635,139.635,0,0,1,17.538,17.479l-63.041-149.219L-1699.9-63.749l.014-.017a159.308,159.308,0,0,1,17.779-15.282,132.357,132.357,0,0,1,18.488-11.613,77.307,77.307,0,0,1,21.547-7.578,31.881,31.881,0,0,1,5.478-.468C-1630.216-98.707-1623.3-96.869-1616.036-93.244Zm4.991-56.964c10.138,18.22,19.1,32.738,26.644,43.15,9.428,13.015,16.648,19.615,21.459,19.616a4.935,4.935,0,0,0,4.148-2.348c4.781-6.8,11.869-10.256,21.067-10.256a47.119,47.119,0,0,1,11.045,1.434,70.954,70.954,0,0,1,9.7,3.154,76.751,76.751,0,0,1,9.517,4.587l0,0c-2.518-2.139-62.03-52.68-92.61-76.138a215.569,215.569,0,0,1-19.939-17.293,180.674,180.674,0,0,1-13.4-14.674,105.953,105.953,0,0,1-9.908-13.987h0C-1643.19-212.668-1628.3-181.219-1611.046-150.208Zm-112,60.418a5.114,5.114,0,0,0,4.2,2.348c4.774,0,11.686-6.6,20.544-19.609,7.088-10.412,15.431-24.93,24.8-43.151,15.835-30.8,29.513-62.45,29.649-62.766l-.008.018a123.927,123.927,0,0,1-10.316,13.994c-4.11,4.936-8.673,9.873-13.564,14.676a231.073,231.073,0,0,1-19.749,17.267c-30.038,23.431-87.62,73.944-90.057,76.082l.015-.009a84.644,84.644,0,0,1,10.122-4.553,79.573,79.573,0,0,1,10.325-3.141,53.338,53.338,0,0,1,11.734-1.427h0C-1735.554-100.061-1728.05-96.605-1723.043-89.79Zm66.875,87.206v-25.84a1.887,1.887,0,0,0-1.836-1.9,1.935,1.935,0,0,0-1.836,1.9v25.84h-7.411v-1.36h3.536V-32.3h-3.536v-1.36h4.964v1.5A5.787,5.787,0,0,1-1658-34.136a5.661,5.661,0,0,1,5.712,5.712v24.48h3.6v1.36Zm-38.352,0v-1.36h3.6V-46.376h-4.352V-42.7h-1.428v-7.48h15.368v7.48h-1.36v-3.672h-4.352V-3.944h3.6v1.36Zm-37.129,0v-1.36h3.536V-32.3h-3.536v-1.36h7.412V-3.944h3.6v1.36Zm-17.475,0v-1.36h3.536v-44.88h-3.536v-1.36h9.247a5.66,5.66,0,0,1,5.712,5.712v13.26a5.3,5.3,0,0,1-1.5,3.74,5.459,5.459,0,0,1,1.5,3.808V-8.3a5.66,5.66,0,0,1-5.712,5.712Zm7.411-3.808h1.836a1.887,1.887,0,0,0,1.836-1.9V-23.664a1.887,1.887,0,0,0-1.836-1.9h-1.836Zm0-22.984h1.836a1.828,1.828,0,0,0,1.836-1.836v-13.26a1.887,1.887,0,0,0-1.836-1.9h-1.836Zm13.125-13.668a2.324,2.324,0,0,1,2.38-2.38,2.381,2.381,0,0,1,2.448,2.38,2.381,2.381,0,0,1-2.448,2.381A2.324,2.324,0,0,1-1728.588-43.044Z" transform="translate(1795.809 228.584)"/>
  </g>
</svg>
