<svg width="764" height="893" viewBox="0 0 764 893" fill="none" xmlns="http://www.w3.org/2000/svg">
<path opacity="0.2" fill-rule="evenodd" clip-rule="evenodd" d="M382.143 446.642L763.392 892.157L763.391 737.38L382.142 446.639L382.141 446.639L763.391 596.891L763.391 446.638L382.141 446.637L382.139 446.634L382.14 446.637L382.139 446.638L382.139 446.638L457.028 892.153L612.661 892.157L382.143 446.642ZM382.137 446.638L382.137 446.639L307.249 892.153L151.618 892.157L382.133 446.644L0.888672 892.157L0.889662 737.379L382.135 446.64L382.136 446.639L0.889186 596.891L0.889199 446.638L382.136 446.638L382.138 446.634L382.138 446.638L382.137 446.638L382.137 446.638ZM447.031 0.688144L382.182 446.208L382.102 446.208L317.252 0.688254L171.928 0.685007L591.858 0.684983L447.031 0.688144ZM592.662 0.684922L382.271 446.208L382.373 446.208L763.392 0.684937L763.391 177.319L382.525 446.208L382.947 446.208L763.391 318.699L763.391 446.208L763.392 446.208L763.392 0.684937L592.662 0.684922ZM382.012 446.208L171.62 0.685007L0.888628 0.684992L381.91 446.208L382.012 446.208ZM0.889589 177.319L381.758 446.208L381.335 446.208L0.889149 318.699L0.889168 100.041L0.889589 177.319Z" fill="black"/>
</svg>
