<?xml version="1.0" encoding="utf-8"?>
<!-- Generator: Adobe Illustrator 27.5.0, SVG Export Plug-In . SVG Version: 6.00 Build 0)  -->
<svg version="1.1" id="Layer_1" xmlns="http://www.w3.org/2000/svg" xmlns:xlink="http://www.w3.org/1999/xlink" x="0px" y="0px"
	 viewBox="0 0 120 120" style="enable-background:new 0 0 120 120;" xml:space="preserve">
<path d="M108.8,56.1V9.4c0,0-9.2-5.6-25.1,8.4c-7-3.9-15.1-6.1-23.7-6.1c-8.6,0-16.7,2.2-23.7,6.1c-15.9-14-25.1-8.4-25.1-8.4v47
	c-0.1,1.4-0.2,2.8-0.2,4.3c0,27.1,21.9,49,49,49c27.1,0,49-21.9,49-49C109,59.2,108.9,57.6,108.8,56.1z M64.6,96.4
	c-2.1-0.8-3.8-2.4-4.6-4.3c-0.9,1.9-2.5,3.5-4.6,4.3c-4.3,1.6-9-0.6-10.6-4.9v-0.1c0.5,0.1,1.1,0.1,1.6,0.1h0.1
	c1.5,3.1,5.1,4.6,8.3,3.4c3.5-1.3,5.2-5.1,4-8.6c-0.4-1.2-1.2-2.1-2.1-2.9v-1.8h6.6v1.7c-0.9,0.7-1.6,1.7-2.1,2.9
	c-1.3,3.5,0.5,7.3,4,8.6c3.3,1.2,6.8-0.3,8.3-3.4h0.1c0.5,0.1,1.1,0.1,1.6,0.1C73.6,95.8,68.9,98,64.6,96.4z"/>
</svg>
