<?xml version="1.0" encoding="utf-8"?>
<!-- Generator: Adobe Illustrator 27.5.0, SVG Export Plug-In . SVG Version: 6.00 Build 0)  -->
<svg version="1.1" id="Layer_1" xmlns="http://www.w3.org/2000/svg" xmlns:xlink="http://www.w3.org/1999/xlink" x="0px" y="0px"
	 viewBox="0 0 120 120" style="enable-background:new 0 0 120 120;" xml:space="preserve">
<path d="M106.3,10.2c0,0-21.6,15-46.3,15c-24.7,0-46.3-15-46.3-15c-0.9,0-1.7,0.3-2.5,0.7c-2.4,1.4-3.2,4.4-1.8,6.8l14.7,50.5
	l31.6,39.5c0.4,0.7,1,1.4,1.8,1.8c2.4,1.4,5.4,0.6,6.8-1.8l31.6-39.5l14.7-50.5c0.5-0.8,0.7-1.6,0.7-2.5
	C111.3,12.3,109.1,10.2,106.3,10.2z M64.6,91.9c-2.1-0.8-3.8-2.4-4.6-4.3c-0.9,1.9-2.5,3.5-4.6,4.3c-4.3,1.6-9-0.6-10.6-4.9v-0.1
	c0.5,0.1,1.1,0.1,1.6,0.1h0.1c1.5,3.1,5.1,4.6,8.3,3.4c3.5-1.3,5.2-5.1,4-8.6c-0.4-1.2-1.2-2.1-2.1-2.9v-1.8h6.6v1.7
	c-0.9,0.7-1.6,1.7-2.1,2.9c-1.3,3.5,0.5,7.3,4,8.6c3.3,1.2,6.8-0.3,8.3-3.4h0.1c0.5,0.1,1.1,0.1,1.6,0.1
	C73.6,91.3,68.9,93.5,64.6,91.9z"/>
</svg>
