<svg xmlns="http://www.w3.org/2000/svg" xmlns:xlink="http://www.w3.org/1999/xlink" width="120" height="120" viewBox="0 0 120 120"><defs><clipPath id="b"><rect width="120" height="120"/></clipPath></defs><g id="a" clip-path="url(#b)"><rect width="120" height="120" fill="rgba(255,255,255,0)"/><path d="M73.619,0a5,5,0,0,1,4.326,2.493l22.6,39a5,5,0,0,1,0,5.014l-22.6,39A5,5,0,0,1,73.619,88H28.381a5,5,0,0,1-4.326-2.493l-22.6-39a5,5,0,0,1,0-5.014l22.6-39A5,5,0,0,1,28.381,0Z" transform="translate(9 16)"/></g></svg>