<svg width="170" height="171" viewBox="0 0 170 171" fill="none" xmlns="http://www.w3.org/2000/svg">
<path fill-rule="evenodd" clip-rule="evenodd" d="M84.9999 7.68201L89.7206 22.5381H104.997L92.6382 31.7197L97.3588 46.5759L84.9999 37.3943L72.6411 46.5759L77.3617 31.7197L65.0029 22.5381H80.2793L84.9999 7.68201ZM48.2814 51.8836L43.4484 36.682L38.6153 51.8836H22.9752L35.6283 61.2788L30.7953 76.4804L43.4484 67.0853L56.1015 76.4804L51.2684 61.2788L63.9216 51.8836H48.2814ZM131.385 51.8836L126.552 36.682L121.719 51.8836H106.078L118.732 61.2788L113.898 76.4804L126.552 67.0853L139.205 76.4804L134.372 61.2788L147.025 51.8836H131.385ZM88.5967 59.0832L85 47.682L81.4033 59.0832H69.7641L79.1804 66.1296L75.5837 77.5308L85 70.4844L94.4163 77.5308L90.8196 66.1296L100.236 59.0832H88.5967Z" fill="white"/>
</svg>
