<svg width="170" height="170" viewBox="0 0 170 170" fill="none" xmlns="http://www.w3.org/2000/svg">
<path fill-rule="evenodd" clip-rule="evenodd" d="M55.5475 30.3416L51.0747 16.5244L46.6018 30.3416H32.102L43.8326 38.8961L39.3568 52.7225L51.0747 44.1773L62.7925 52.7225L58.3167 38.8961L70.0473 30.3416H55.5475ZM76.1843 28.3416L60.6657 39.6584L66.5932 57.9695L51.0747 46.6526L35.5561 57.9695L41.4836 39.6584L25.965 28.3416H45.1471L51.0747 10.0305L57.0022 28.3416H76.1843ZM41.2534 97.6584L47.181 115.969L31.6624 104.653L16.1438 115.969L22.0714 97.6584L6.55278 86.3416H25.7348L31.6624 68.0305L37.59 86.3416H56.772L41.2534 97.6584ZM50.6351 88.3416H36.1352L31.6624 74.5244L27.1896 88.3416H12.6897L24.4203 96.8961L19.9445 110.723L31.6624 102.177L43.3803 110.723L38.9044 96.8961L50.6351 88.3416ZM123.398 30.3416L118.925 16.5244L114.453 30.3416H99.9527L111.683 38.8961L107.207 52.7225L118.925 44.1773L130.643 52.7225L126.167 38.8961L137.898 30.3416H123.398ZM144.035 28.3416L128.516 39.6584L134.444 57.9695L118.925 46.6526L103.407 57.9695L109.334 39.6584L93.8158 28.3416H112.998L118.925 10.0305L124.853 28.3416H144.035ZM142.81 88.3416L138.338 74.5244L133.865 88.3416H119.365L131.096 96.8961L126.62 110.723L138.338 102.177L150.055 110.723L145.58 96.8961L157.31 88.3416H142.81ZM163.447 86.3416L147.929 97.6584L153.856 115.969L138.338 104.653L122.819 115.969L128.747 97.6584L113.228 86.3416H132.41L138.338 68.0305L144.265 86.3416H163.447ZM90.9276 127.342L85 109.031L79.0724 127.342H59.8904L75.409 138.658L69.4814 156.969L85 145.653L100.519 156.969L94.591 138.658L110.11 127.342H90.9276ZM103.973 129.342H89.4728L85 115.524L80.5272 129.342H66.0273L77.758 137.896L73.2821 151.723L85 143.177L96.7179 151.723L92.2421 137.896L103.973 129.342Z" fill="white"/>
</svg>
