<svg width="170" height="171" viewBox="0 0 170 171" fill="none" xmlns="http://www.w3.org/2000/svg">
<path fill-rule="evenodd" clip-rule="evenodd" d="M67.0746 10.682L69.3114 17.5918H76.5499L70.6938 21.8623L72.9306 28.7722L67.0746 24.5017L61.2185 28.7722L63.4553 21.8623L57.5993 17.5918H64.8378L67.0746 10.682ZM84.9997 17.682L91.9336 39.7935H114.372L96.219 53.4591L103.153 75.5705L84.9997 61.9049L66.8463 75.5705L73.7803 53.4591L55.627 39.7935H78.0657L84.9997 17.682ZM30.7954 59.7377L27.2165 48.682L23.6376 59.7377H12.056L21.4257 66.5705L17.8468 77.6263L27.2165 70.7935L36.5862 77.6263L33.0073 66.5705L42.377 59.7377H30.7954ZM41.6624 24.682L44.4584 33.3193H53.5065L46.1864 38.6574L48.9825 47.2947L41.6624 41.9566L34.3423 47.2947L37.1383 38.6574L29.8182 33.3193H38.8664L41.6624 24.682ZM105.162 17.5918L102.925 10.682L100.688 17.5918H93.45L99.306 21.8623L97.0692 28.7722L102.925 24.5017L108.781 28.7722L106.545 21.8623L112.401 17.5918H105.162ZM142.784 48.682L146.362 59.7377H157.944L148.574 66.5705L152.153 77.6263L142.784 70.7935L133.414 77.6263L136.993 66.5705L127.623 59.7377H139.205L142.784 48.682ZM131.134 33.3193L128.338 24.682L125.542 33.3193H116.493L123.814 38.6574L121.018 47.2947L128.338 41.9566L135.658 47.2947L132.862 38.6574L140.182 33.3193H131.134Z" fill="white"/>
</svg>
