<?xml version="1.0" encoding="utf-8"?>
<!-- Generator: Adobe Illustrator 27.5.0, SVG Export Plug-In . SVG Version: 6.00 Build 0)  -->
<svg version="1.1" id="Layer_1" xmlns="http://www.w3.org/2000/svg" xmlns:xlink="http://www.w3.org/1999/xlink" x="0px" y="0px"
	 viewBox="0 0 369 369" style="enable-background:new 0 0 369 369;" xml:space="preserve">
<style type="text/css">
	.st0{fill-rule:evenodd;clip-rule:evenodd;}
</style>
<path class="st0" d="M184,0C83,0,0,83,0,184c0,102,83,185,184,185c102,0,185-83,185-185C369,83,286,0,184,0z M196.2,283.9
	c-2,4.4-4.9,8.4-8.8,11.9c-3.9,3.6-8.8,6.5-14.6,8.7c-5.8,2.2-12.3,3.3-19.5,3.3c-8.7,0-15.2-2.7-19.3-8c-4.1-5.3-6.2-11.7-6.2-19.2
	c0-4.1,0.8-8.3,2.3-12.6c1.5-4.3,3.9-8.1,7-11.6c3.2-3.5,7-6.3,11.6-8.5c4.6-2.2,9.8-3.3,15.7-3.3c12,0,20.8,2.6,26.4,7.9
	c5.6,5.2,8.3,11.2,8.3,18C199.2,275,198.2,279.5,196.2,283.9z M258.8,130.5c-3.5,7.5-7.8,14.1-12.9,19.8
	c-5.1,5.7-10.9,10.9-17.4,15.7c-6.4,4.8-12.6,9.7-18.5,14.7c-5.9,5-11.2,10.6-16,16.7c-4.8,6.1-8.2,13.3-10.1,21.6l-19.3,2l-19.3,2
	c0-11.8,1.7-22.3,5.1-31.4c3.4-9.2,7.6-17.3,12.6-24.4c5-7.1,10.4-13.4,16.2-19c5.8-5.6,11.2-10.6,16.2-15.1
	c5-4.5,9.2-8.5,12.4-12.1c3.3-3.6,4.9-7.1,4.9-10.6c0-1.3-0.9-3.1-2.6-5.4c-1.7-2.3-4.5-3.4-8.2-3.4c-4.1,0-9.2,1.7-15.2,5.1
	c-6,3.4-12.1,7.3-18.2,11.8c-6.1,4.5-12.4,9.7-19,15.6l-17.4-40.3c11.1-10,23.7-18,37.7-23.7c14-5.8,28.2-8.7,42.6-8.7
	c7,0,13.6,0.7,19.8,2.1c6.2,1.4,11.7,3.8,16.4,7.2c4.7,3.4,8.5,7.7,11.3,13.1c2.8,5.4,4.3,11.8,4.3,19.5
	C264,113.8,262.3,122.9,258.8,130.5z"/>
</svg>
