<svg width="170" height="170" viewBox="0 0 170 170" fill="none" xmlns="http://www.w3.org/2000/svg">
<path fill-rule="evenodd" clip-rule="evenodd" d="M61.9315 25.2102L59.5485 17.8624L57.1655 25.2102H49.4443L55.6909 29.7572L53.3067 37.1086L59.5485 32.5652L65.7902 37.1086L63.4061 29.7572L69.6527 25.2102H61.9315ZM74.2622 23.7102L65.1686 30.3295L68.6421 41.0398L59.5485 34.4205L50.4549 41.0398L53.9283 30.3295L44.8347 23.7102H56.075L59.5485 13L63.0219 23.7102H74.2622ZM38.6493 57.2832L35.5941 47.8624L32.5388 57.2832H22.642L30.6487 63.1113L27.5923 72.5356L35.5941 66.7111L43.5959 72.5356L40.5395 63.1113L48.5461 57.2832H38.6493ZM53.1556 55.7832L42.302 63.6836L46.4477 76.4668L35.5941 68.5664L24.7404 76.4668L28.8862 63.6836L18.0325 55.7832H31.4484L35.5941 43L39.7398 55.7832H53.1556ZM138.552 55.7832L134.406 43L130.26 55.7832H116.844L127.698 63.6836L123.552 76.4668L134.406 68.5664L145.26 76.4668L141.114 63.6836L151.967 55.7832H138.552ZM147.358 57.2832H137.461L134.406 47.8624L131.351 57.2832H121.454L129.461 63.1113L126.404 72.5356L134.406 66.7111L142.408 72.5356L139.351 63.1113L147.358 57.2832ZM112.834 25.2102L110.451 17.8624L108.068 25.2102H100.347L106.594 29.7572L104.21 37.1086L110.451 32.5652L116.693 37.1086L114.309 29.7572L120.556 25.2102H112.834ZM125.165 23.7102L116.072 30.3295L119.545 41.0398L110.451 34.4205L101.358 41.0398L104.831 30.3295L95.7378 23.7102H106.978L110.451 13L113.925 23.7102H125.165ZM90.3777 47.9291L84.9996 31L79.6215 47.9291H62.2176L76.2977 58.3918L70.9196 75.3209L84.9996 64.8582L99.0796 75.3209L93.7015 58.3918L107.782 47.9291H90.3777ZM103.248 49.4291H89.2803L84.9996 35.9542L80.7188 49.4291H66.7511L78.0512 57.8261L73.7569 71.3437L84.9996 62.9894L96.2422 71.3437L91.9479 57.8261L103.248 49.4291Z" fill="white"/>
</svg>
