<svg width="170" height="171" viewBox="0 0 170 171" fill="none" xmlns="http://www.w3.org/2000/svg">
<mask id="path-1-inside-1_110_453" fill="white">
<path d="M85 58.698L90.9496 77.009H110.203L94.6267 88.3259L100.576 106.637L85 95.3201L69.4237 106.637L75.3733 88.3259L59.797 77.009H79.0504L85 58.698Z"/>
</mask>
<path d="M85 58.698L90.9496 77.009H110.203L94.6267 88.3259L100.576 106.637L85 95.3201L69.4237 106.637L75.3733 88.3259L59.797 77.009H79.0504L85 58.698Z" fill="white"/>
<path d="M85 58.698L88.8042 57.4619L85 45.7537L81.1958 57.4619L85 58.698ZM90.9496 77.009L87.1454 78.2451L88.0434 81.009H90.9496V77.009ZM110.203 77.009L112.554 80.2451L122.514 73.009H110.203V77.009ZM94.6267 88.3259L92.2755 85.0898L89.9244 86.798L90.8225 89.562L94.6267 88.3259ZM100.576 106.637L98.2252 109.873L108.185 117.109L104.381 105.401L100.576 106.637ZM85 95.3201L87.3511 92.084L85 90.3758L82.6489 92.084L85 95.3201ZM69.4237 106.637L65.6195 105.401L61.8152 117.109L71.7748 109.873L69.4237 106.637ZM75.3733 88.3259L79.1775 89.562L80.0756 86.798L77.7245 85.0898L75.3733 88.3259ZM59.797 77.009V73.009H47.4863L57.4459 80.2451L59.797 77.009ZM79.0504 77.009V81.009H81.9565L82.8546 78.2451L79.0504 77.009ZM81.1958 59.9341L87.1454 78.2451L94.7538 75.773L88.8042 57.4619L81.1958 59.9341ZM90.9496 81.009H110.203V73.009H90.9496V81.009ZM107.852 73.773L92.2755 85.0898L96.9778 91.562L112.554 80.2451L107.852 73.773ZM90.8225 89.562L96.7721 107.873L104.381 105.401L98.4309 87.0898L90.8225 89.562ZM102.927 103.401L87.3511 92.084L82.6489 98.5562L98.2252 109.873L102.927 103.401ZM82.6489 92.084L67.0726 103.401L71.7748 109.873L87.3511 98.5562L82.6489 92.084ZM73.2279 107.873L79.1775 89.562L71.5691 87.0898L65.6195 105.401L73.2279 107.873ZM77.7245 85.0898L62.1481 73.773L57.4459 80.2451L73.0222 91.562L77.7245 85.0898ZM59.797 81.009H79.0504V73.009H59.797V81.009ZM82.8546 78.2451L88.8042 59.9341L81.1958 57.4619L75.2462 75.773L82.8546 78.2451Z" fill="white" mask="url(#path-1-inside-1_110_453)"/>
</svg>
