<svg width="170" height="171" viewBox="0 0 170 171" fill="none" xmlns="http://www.w3.org/2000/svg">
<path fill-rule="evenodd" clip-rule="evenodd" d="M91.1056 41.4299L85.2805 23.1189L79.4554 41.4299H60.6049L75.8553 52.7468L70.0301 71.0578L85.2805 59.741L100.531 71.0578L94.7058 52.7468L109.956 41.4299H91.1056ZM133.106 79.1494L127.281 60.8384L121.455 79.1494H102.605L117.855 90.4663L112.03 108.777L127.281 97.4605L142.531 108.777L136.706 90.4663L151.956 79.1494H133.106ZM43.2803 60.8384L49.2378 79.1494H68.5167L52.9198 90.4663L58.8773 108.777L43.2803 97.4605L27.6833 108.777L33.6409 90.4663L18.0439 79.1494H37.3228L43.2803 60.8384ZM91.1056 117.649L85.2805 99.3384L79.4554 117.649H60.6049L75.8553 128.966L70.0301 147.277L85.2805 135.96L100.531 147.277L94.7058 128.966L109.956 117.649H91.1056Z" fill="white"/>
</svg>
