<svg width="170" height="170" viewBox="0 0 170 170" fill="none" xmlns="http://www.w3.org/2000/svg">
<path fill-rule="evenodd" clip-rule="evenodd" d="M68.2203 18.4098L67.0746 14.8704L65.9288 18.4098H62.2019L65.217 20.6086L64.069 24.1549L67.0746 21.9632L70.0801 24.1549L68.9321 20.6086L71.9472 18.4098H68.2203ZM76.5499 16.9098L70.6938 21.1803L72.9306 28.0902L67.0746 23.8197L61.2185 28.0902L63.4553 21.1803L57.5993 16.9098H64.8378L67.0746 10L69.3114 16.9098H76.5499ZM90.832 40.6115L84.9997 22.013L79.1673 40.6115H60.1136L75.5284 52.2155L69.6749 70.8817L84.9997 59.3454L100.324 70.8817L94.4709 52.2155L109.886 40.6115H90.832ZM114.372 39.1115L96.219 52.7771L103.153 74.8885L84.9997 61.2229L66.8463 74.8885L73.7803 52.7771L55.627 39.1115H78.0657L84.9997 17L91.9336 39.1115H114.372ZM30.7954 59.0557L27.2165 48L23.6376 59.0557H12.056L21.4257 65.8885L17.8468 76.9443L27.2165 70.1115L36.5862 76.9443L33.0073 65.8885L42.377 59.0557H30.7954ZM37.7743 60.5557H29.7043L27.2165 52.8704L24.7286 60.5557H16.6587L23.1874 65.3168L20.6973 73.0091L27.2165 68.255L33.7357 73.0091L31.2456 65.3168L37.7743 60.5557ZM43.3673 34.1373L41.6624 28.8704L39.9574 34.1373H34.4209L38.9 37.4037L37.1928 42.6775L41.6624 39.4181L46.1319 42.6775L44.4247 37.4037L48.9038 34.1373H43.3673ZM53.5065 32.6373L46.1864 37.9754L48.9825 46.6127L41.6624 41.2746L34.3423 46.6127L37.1383 37.9754L29.8182 32.6373H38.8664L41.6624 24L44.4584 32.6373H53.5065ZM105.162 16.9098L102.925 10L100.688 16.9098H93.45L99.306 21.1803L97.0692 28.0902L102.925 23.8197L108.781 28.0902L106.545 21.1803L112.401 16.9098H105.162ZM107.798 18.4098H104.071L102.925 14.8704L101.78 18.4098H98.0527L101.068 20.6086L99.9197 24.155L102.925 21.9632L105.931 24.155L104.783 20.6086L107.798 18.4098ZM145.271 60.5557L142.784 52.8705L140.296 60.5557H132.226L138.754 65.3168L136.264 73.0091L142.784 68.255L149.303 73.0091L146.813 65.3168L153.341 60.5557H145.271ZM157.944 59.0557L148.574 65.8885L152.153 76.9443L142.784 70.1115L133.414 76.9443L136.993 65.8885L127.623 59.0557H139.205L142.784 48L146.362 59.0557H157.944ZM131.134 32.6373L128.338 24L125.542 32.6373H116.493L123.814 37.9754L121.018 46.6127L128.338 41.2746L135.658 46.6127L132.862 37.9754L140.182 32.6373H131.134ZM135.579 34.1373H130.043L128.338 28.8704L126.633 34.1373H121.096L125.575 37.4037L123.868 42.6775L128.338 39.4181L132.807 42.6775L131.1 37.4037L135.579 34.1373Z" fill="white"/>
</svg>
