<svg width="170" height="171" viewBox="0 0 170 171" fill="none" xmlns="http://www.w3.org/2000/svg">
<path fill-rule="evenodd" clip-rule="evenodd" d="M85.5005 12.682L91.4581 30.9931H110.737L95.14 42.3099L101.098 60.621L85.5005 49.3041L69.9036 60.621L75.8611 42.3099L60.2641 30.9931H79.543L85.5005 12.682ZM42.9432 34.682L47.8891 50.2291H63.8942L50.9458 59.8378L55.8917 75.3849L42.9432 65.7762L29.9948 75.3849L34.9407 59.8378L21.9922 50.2291H37.9974L42.9432 34.682ZM132.003 50.2291L127.057 34.682L122.111 50.2291H106.106L119.054 59.8378L114.108 75.3849L127.057 65.7762L140.005 75.3849L135.059 59.8378L148.008 50.2291H132.003Z" fill="white"/>
</svg>
