<?xml version="1.0" encoding="utf-8"?>
<!-- Generator: Adobe Illustrator 27.5.0, SVG Export Plug-In . SVG Version: 6.00 Build 0)  -->
<svg version="1.1" id="Layer_1" xmlns="http://www.w3.org/2000/svg" xmlns:xlink="http://www.w3.org/1999/xlink" x="0px" y="0px"
	 viewBox="0 0 100 100" style="enable-background:new 0 0 100 100;" xml:space="preserve">
<g>
	<path d="M99.7,44.5C99.5,43,97.9,42,96.4,42c-6.1,0.1-11.1-4.7-11.2-10.8c-0.1-3.2,1.3-6.3,3.7-8.5c1.1-1,1.2-2.6,0.3-3.8
		c-2.3-3-5-5.6-7.9-8c-1.2-0.9-2.8-0.8-3.8,0.3c-3.2,3.4-8.1,4.5-12.5,2.8c-4.3-1.8-7-6.2-6.7-10.9c0.1-1.5-1-2.8-2.5-2.9
		c-3.7-0.4-7.5-0.4-11.2,0c-1.4,0.2-2.5,1.4-2.5,2.8c0.2,4.6-2.6,8.9-6.8,10.7c-4.3,1.6-9.2,0.5-12.4-2.8c-1-1.1-2.6-1.2-3.8-0.3
		c-3,2.3-5.7,5-8.1,8c-0.9,1.2-0.8,2.8,0.3,3.8c3.5,3.1,4.6,8.2,2.8,12.5c-1.9,4.2-6.2,6.9-10.9,6.7c-1.5-0.1-2.7,1-2.9,2.5
		c-0.4,3.8-0.4,7.6,0,11.4C0.5,57,2.2,58,3.6,58c4.5,0,8.6,2.7,10.3,6.9c1.7,4.3,0.6,9.2-2.8,12.4c-1.1,1-1.2,2.6-0.3,3.8
		c2.3,3,5,5.6,7.9,8c1.1,0.9,2.8,0.8,3.8-0.3c3.2-3.4,8.1-4.5,12.5-2.8c4.3,1.8,7,6.2,6.8,10.8c-0.1,1.5,1,2.8,2.5,2.9
		c1.9,0.2,3.8,0.3,5.8,0.3c1.8,0,3.7-0.1,5.5-0.3c1.4-0.2,2.5-1.4,2.5-2.9c-0.2-4.6,2.5-8.9,6.8-10.7c4.3-1.6,9.2-0.5,12.4,2.9
		c1,1.1,2.6,1.2,3.8,0.3c3-2.4,5.7-5,8.1-8c0.9-1.1,0.8-2.8-0.3-3.8c-4.6-4-5-11-1-15.5c2.1-2.4,5.2-3.8,8.4-3.7h0.6
		c1.5,0.1,2.8-1,2.9-2.5C100.1,52,100.1,48.2,99.7,44.5z M50.1,66.8c-9.2,0-16.7-7.5-16.7-16.7s7.5-16.7,16.7-16.7
		s16.7,7.5,16.7,16.7v0C66.7,59.3,59.3,66.8,50.1,66.8z"/>
</g>
</svg>
