<?xml version="1.0" encoding="utf-8"?>
<!-- Generator: Adobe Illustrator 27.5.0, SVG Export Plug-In . SVG Version: 6.00 Build 0)  -->
<svg version="1.1"
	 id="Layer_1" xmlns:sodipodi="http://sodipodi.sourceforge.net/DTD/sodipodi-0.dtd" xmlns:svg="http://www.w3.org/2000/svg" xmlns:dc="http://purl.org/dc/elements/1.1/" xmlns:inkscape="http://www.inkscape.org/namespaces/inkscape" xmlns:cc="http://creativecommons.org/ns#" xmlns:rdf="http://www.w3.org/1999/02/22-rdf-syntax-ns#"
	 xmlns="http://www.w3.org/2000/svg" xmlns:xlink="http://www.w3.org/1999/xlink" x="0px" y="0px" viewBox="0 0 8.1 6.9"
	 style="enable-background:new 0 0 8.1 6.9;" xml:space="preserve">
<path d="M6.3,0.4C6.2,0.2,5.9,0,5.8,0c0,0-1.5,0.1-2.6,0.1C2.1,0.1,0.4,0,0.4,0C0.3,0,0,0.2,0,0.4v0.1c0,0,0.1,1.2,0.1,2.5
	C0.1,4.3,0,5.7,0,5.7c0.4,1,1.5,1.2,3.1,1.2c1.6,0,2.7-0.1,3.1-1.2h0.1c1.2,0,1.8-1.8,1.8-3C8.1,1.4,7.5,0.4,6.3,0.4z M2.1,6.3
	c0,0-0.5,0-0.9-0.2c-0.8-0.3-0.7-0.8-0.6-1C0.8,5,1,4.9,1.2,5c0.2,0.1,0.3,0.2,0.4,0.4c0.1,0.1,0.7,0.3,0.7,0.3
	C2.6,5.7,2.6,6.3,2.1,6.3z M6.3,4.8C6.2,4.8,6.1,3.7,6.1,3c0-0.7,0-1.7,0-1.7s0,0,0.1,0c0.7,0,0.9,0.6,0.9,1.3S7,4.8,6.3,4.8z"/>
</svg>
