<svg width="170" height="170" viewBox="0 0 170 170" fill="none" xmlns="http://www.w3.org/2000/svg">
<path fill-rule="evenodd" clip-rule="evenodd" d="M86.8135 17.8283L85 12.0272L83.1865 17.8283H77.1224L82.0283 21.5329L80.1917 27.4078L85 23.7769L89.8083 27.4078L87.9717 21.5329L92.8776 17.8283H86.8135ZM97.3532 16.3283L89.7185 22.0935L92.6347 31.4217L85 25.6565L77.3653 31.4217L80.2815 22.0935L72.6468 16.3283H82.0838L85 7L87.9162 16.3283H97.3532ZM57.0043 27.0557L53.5273 16L50.0504 27.0557H38.7986L47.9015 33.8885L44.4245 44.9443L53.5273 38.1115L62.6302 44.9443L59.1532 33.8885L68.2561 27.0557H57.0043ZM63.7591 28.5557H55.9037L53.5273 20.9998L51.151 28.5557H43.2956L49.6508 33.3261L47.2549 40.9441L53.5273 36.2359L59.7998 40.9441L57.4039 33.3261L63.7591 28.5557ZM93.3483 60.2738L98.5077 76.5119L85.0002 66.4762L71.4926 76.5119L76.6521 60.2738L63.1445 50.2381H79.8407L85.0002 34L90.1596 50.2381H106.856L93.3483 60.2738ZM102.322 51.7381H89.0623L85.0002 38.9535L80.938 51.7381H67.6786L78.4057 59.708L74.3301 72.535L85.0002 64.6075L95.6702 72.535L91.5946 59.708L102.322 51.7381ZM36.9197 53.1652L32.5454 39L28.1711 53.1652H14.0156L25.4676 61.9197L21.0933 76.0848L32.5454 67.3303L43.9974 76.0848L39.6231 61.9197L51.0751 53.1652H36.9197ZM46.6431 54.6652H35.813L32.5454 44.0838L29.2778 54.6652H18.4476L27.2094 61.3631L23.9116 72.0423L32.5454 65.4422L41.1791 72.0423L37.8813 61.3631L46.6431 54.6652ZM118.849 28.5557L116.473 20.9998L114.096 28.5557H106.241L112.596 33.3261L110.2 40.9441L116.473 36.2359L122.745 40.9441L120.349 33.3261L126.705 28.5557H118.849ZM131.202 27.0557L122.099 33.8885L125.576 44.9443L116.473 38.1115L107.37 44.9443L110.847 33.8885L101.744 27.0557H112.996L116.473 16L119.95 27.0557H131.202ZM141.829 53.1652L137.455 39L133.08 53.1652H118.925L130.377 61.9197L126.003 76.0848L137.455 67.3303L148.907 76.0848L144.532 61.9197L155.984 53.1652H141.829ZM151.552 54.6652H140.722L137.455 44.0838L134.187 54.6652H123.357L132.119 61.3631L128.821 72.0423L137.455 65.4422L146.088 72.0424L142.791 61.3631L151.552 54.6652Z" fill="white"/>
</svg>
