<svg width="170" height="170" viewBox="0 0 170 170" fill="none" xmlns="http://www.w3.org/2000/svg">
<path fill-rule="evenodd" clip-rule="evenodd" d="M62.6642 42.2381L57.3881 26L52.112 42.2381H35.0383L48.8512 52.2738L43.5751 68.5119L57.3881 58.4762L71.201 68.5119L65.925 52.2738L79.7379 42.2381H62.6642ZM75.1214 43.7381H61.5744L57.3881 30.8541L53.2018 43.7381H39.6548L50.6146 51.7009L46.4283 64.5849L57.3881 56.6221L68.3479 64.5849L64.1616 51.7009L75.1214 43.7381ZM117.888 42.2381L112.612 26L107.336 42.2381H90.262L104.075 52.2738L98.7989 68.5119L112.612 58.4762L126.425 68.5119L121.149 52.2738L134.962 42.2381H117.888ZM130.345 43.7381H116.798L112.612 30.8541L108.426 43.7381H94.8786L105.838 51.7009L101.652 64.5849L112.612 56.6221L123.572 64.5849L119.385 51.7009L130.345 43.7381Z" fill="white"/>
</svg>
