<?xml version="1.0" encoding="utf-8"?>
<!-- Generator: Adobe Illustrator 27.5.0, SVG Export Plug-In . SVG Version: 6.00 Build 0)  -->
<svg version="1.1" id="Layer_1" xmlns="http://www.w3.org/2000/svg" xmlns:xlink="http://www.w3.org/1999/xlink" x="0px" y="0px"
	 viewBox="0 0 81.2 72.3" style="enable-background:new 0 0 81.2 72.3;" xml:space="preserve">
<path d="M73.2,0.3H8c-4.4,0-8,3.6-8,8v39.3c0,4.4,3.6,8,8,8h56.8c2.1,3.9,4.2,7.5,5.5,9.1c6.9,8.6,11,5.6,11,5.6V47.6V28.2V8.3
	C81.2,3.8,77.6,0.3,73.2,0.3z M19.1,34.7c-3.6,0-6.5-2.9-6.5-6.5s2.9-6.5,6.5-6.5s6.5,2.9,6.5,6.5S22.7,34.7,19.1,34.7z M40.3,34.7
	c-3.6,0-6.5-2.9-6.5-6.5s2.9-6.5,6.5-6.5s6.5,2.9,6.5,6.5S43.9,34.7,40.3,34.7z M55,28.2c0-3.6,2.9-6.5,6.5-6.5s6.5,2.9,6.5,6.5
	s-2.9,6.5-6.5,6.5S55,31.8,55,28.2z"/>
</svg>
