<svg width="170" height="170" viewBox="0 0 170 170" fill="none" xmlns="http://www.w3.org/2000/svg">
<path fill-rule="evenodd" clip-rule="evenodd" d="M88.6233 23.3561L84.9999 11.9531L81.3765 23.3561H69.5372L79.1154 30.4719L75.4786 41.9172L84.9999 34.8436L94.5213 41.9172L90.8845 30.4719L100.463 23.3561H88.6233ZM104.997 21.8561L92.6382 31.0377L97.3588 45.8939L84.9999 36.7123L72.6411 45.8939L77.3617 31.0377L65.0029 21.8561H80.2793L84.9999 7L89.7206 21.8561H104.997ZM48.2814 51.2016L43.4484 36L38.6153 51.2016H22.9752L35.6283 60.5967L30.7953 75.7984L43.4484 66.4033L56.1015 75.7984L51.2684 60.5967L63.9216 51.2016H48.2814ZM59.3853 52.7016H47.1844L43.4484 40.9507L39.7124 52.7016H27.5115L37.3822 60.0308L33.6332 71.8229L43.4484 64.535L53.2636 71.8229L49.5145 60.0308L59.3853 52.7016ZM131.385 51.2016L126.552 36L121.719 51.2016H106.078L118.732 60.5967L113.898 75.7984L126.552 66.4033L139.205 75.7984L134.372 60.5967L147.025 51.2016H131.385ZM142.488 52.7016H130.288L126.552 40.9507L122.816 52.7016H110.615L120.485 60.0308L116.736 71.8229L126.552 64.535L136.367 71.8229L132.618 60.0308L142.488 52.7016ZM88.5967 58.4012L85 47L81.4033 58.4012H69.7641L79.1804 65.4476L75.5837 76.8488L85 69.8024L94.4163 76.8488L90.8196 65.4476L100.236 58.4012H88.5967ZM95.7277 59.9012H87.497L85 51.9859L82.5029 59.9012H74.2722L80.931 64.8841L78.4163 72.8556L85 67.929L91.5837 72.8556L89.0689 64.8841L95.7277 59.9012Z" fill="white"/>
</svg>
