<svg width="170" height="171" viewBox="0 0 170 171" fill="none" xmlns="http://www.w3.org/2000/svg">
<mask id="path-1-inside-1_110_471" fill="white">
<path fill-rule="evenodd" clip-rule="evenodd" d="M51.0747 10.2285L57.0022 28.5396H76.1843L60.6657 39.8564L66.5932 58.1675L51.0747 46.8506L35.5561 58.1675L41.4836 39.8564L25.965 28.5396H45.1471L51.0747 10.2285ZM118.925 10.2285L124.853 28.5396H144.035L128.516 39.8564L134.444 58.1675L118.925 46.8506L103.407 58.1675L109.334 39.8564L93.8158 28.5396H112.998L118.925 10.2285ZM37.59 86.5396L31.6624 68.2285L25.7348 86.5396H6.55278L22.0714 97.8564L16.1438 116.167L31.6624 104.851L47.181 116.167L41.2534 97.8564L56.772 86.5396H37.59ZM138.338 68.2285L144.265 86.5396H163.447L147.929 97.8564L153.856 116.167L138.338 104.851L122.819 116.167L128.747 97.8564L113.228 86.5396H132.41L138.338 68.2285ZM90.9276 127.54L85 109.229L79.0724 127.54H59.8904L75.409 138.856L69.4814 157.167L85 145.851L100.519 157.167L94.591 138.856L110.11 127.54H90.9276Z"/>
</mask>
<path fill-rule="evenodd" clip-rule="evenodd" d="M51.0747 10.2285L57.0022 28.5396H76.1843L60.6657 39.8564L66.5932 58.1675L51.0747 46.8506L35.5561 58.1675L41.4836 39.8564L25.965 28.5396H45.1471L51.0747 10.2285ZM118.925 10.2285L124.853 28.5396H144.035L128.516 39.8564L134.444 58.1675L118.925 46.8506L103.407 58.1675L109.334 39.8564L93.8158 28.5396H112.998L118.925 10.2285ZM37.59 86.5396L31.6624 68.2285L25.7348 86.5396H6.55278L22.0714 97.8564L16.1438 116.167L31.6624 104.851L47.181 116.167L41.2534 97.8564L56.772 86.5396H37.59ZM138.338 68.2285L144.265 86.5396H163.447L147.929 97.8564L153.856 116.167L138.338 104.851L122.819 116.167L128.747 97.8564L113.228 86.5396H132.41L138.338 68.2285ZM90.9276 127.54L85 109.229L79.0724 127.54H59.8904L75.409 138.856L69.4814 157.167L85 145.851L100.519 157.167L94.591 138.856L110.11 127.54H90.9276Z" fill="white"/>
<path d="M57.0022 28.5396L55.0994 29.1555L55.5475 30.5396H57.0022V28.5396ZM51.0747 10.2285L52.9774 9.61255L51.0747 3.7346L49.1719 9.61255L51.0747 10.2285ZM76.1843 28.5396L77.3627 30.1555L82.3212 26.5396H76.1843V28.5396ZM60.6657 39.8564L59.4872 38.2405L58.3167 39.0941L58.7629 40.4724L60.6657 39.8564ZM66.5932 58.1675L65.4148 59.7834L70.3939 63.4144L68.496 57.5515L66.5932 58.1675ZM51.0747 46.8506L52.2531 45.2347L51.0747 44.3753L49.8962 45.2347L51.0747 46.8506ZM35.5561 58.1675L33.6533 57.5515L31.7554 63.4144L36.7345 59.7834L35.5561 58.1675ZM41.4836 39.8564L43.3864 40.4724L43.8326 39.0941L42.6621 38.2405L41.4836 39.8564ZM25.965 28.5396V26.5396H19.8281L24.7866 30.1555L25.965 28.5396ZM45.1471 28.5396V30.5396H46.6018L47.0499 29.1555L45.1471 28.5396ZM124.853 28.5396L122.95 29.1555L123.398 30.5396H124.853V28.5396ZM118.925 10.2285L120.828 9.61255L118.925 3.7346L117.023 9.61255L118.925 10.2285ZM144.035 28.5396L145.213 30.1555L150.172 26.5396H144.035V28.5396ZM128.516 39.8564L127.338 38.2405L126.167 39.0941L126.614 40.4724L128.516 39.8564ZM134.444 58.1675L133.266 59.7834L138.245 63.4144L136.347 57.5515L134.444 58.1675ZM118.925 46.8506L120.104 45.2347L118.925 44.3753L117.747 45.2347L118.925 46.8506ZM103.407 58.1675L101.504 57.5515L99.6061 63.4144L104.585 59.7834L103.407 58.1675ZM109.334 39.8564L111.237 40.4724L111.683 39.0941L110.513 38.2405L109.334 39.8564ZM93.8158 28.5396V26.5396H87.6788L92.6373 30.1555L93.8158 28.5396ZM112.998 28.5396V30.5396H114.453L114.901 29.1555L112.998 28.5396ZM31.6624 68.2285L33.5652 67.6126L31.6624 61.7346L29.7596 67.6126L31.6624 68.2285ZM37.59 86.5396L35.6872 87.1555L36.1352 88.5396H37.59V86.5396ZM25.7348 86.5396V88.5396H27.1896L27.6376 87.1555L25.7348 86.5396ZM6.55278 86.5396V84.5396H0.415861L5.37435 88.1555L6.55278 86.5396ZM22.0714 97.8564L23.9742 98.4724L24.4203 97.0941L23.2498 96.2405L22.0714 97.8564ZM16.1438 116.167L14.241 115.552L12.3431 121.414L17.3222 117.783L16.1438 116.167ZM31.6624 104.851L32.8408 103.235L31.6624 102.375L30.484 103.235L31.6624 104.851ZM47.181 116.167L46.0025 117.783L50.9817 121.414L49.0838 115.552L47.181 116.167ZM41.2534 97.8564L40.075 96.2405L38.9044 97.0941L39.3506 98.4724L41.2534 97.8564ZM56.772 86.5396L57.9504 88.1555L62.9089 84.5396H56.772V86.5396ZM144.265 86.5396L142.362 87.1555L142.81 88.5396H144.265V86.5396ZM138.338 68.2285L140.24 67.6126L138.338 61.7346L136.435 67.6126L138.338 68.2285ZM163.447 86.5396L164.626 88.1555L169.584 84.5396H163.447V86.5396ZM147.929 97.8564L146.75 96.2405L145.58 97.0941L146.026 98.4724L147.929 97.8564ZM153.856 116.167L152.678 117.783L157.657 121.414L155.759 115.552L153.856 116.167ZM138.338 104.851L139.516 103.235L138.338 102.375L137.159 103.235L138.338 104.851ZM122.819 116.167L120.916 115.552L119.018 121.414L123.997 117.783L122.819 116.167ZM128.747 97.8564L130.649 98.4724L131.096 97.0941L129.925 96.2405L128.747 97.8564ZM113.228 86.5396V84.5396H107.091L112.05 88.1555L113.228 86.5396ZM132.41 86.5396V88.5396H133.865L134.313 87.1555L132.41 86.5396ZM85 109.229L86.9028 108.613L85 102.735L83.0972 108.613L85 109.229ZM90.9276 127.54L89.0248 128.156L89.4728 129.54H90.9276V127.54ZM79.0724 127.54V129.54H80.5272L80.9752 128.156L79.0724 127.54ZM59.8904 127.54V125.54H53.7535L58.712 129.156L59.8904 127.54ZM75.409 138.856L77.3118 139.472L77.758 138.094L76.5874 137.24L75.409 138.856ZM69.4814 157.167L67.5786 156.552L65.6807 162.414L70.6598 158.783L69.4814 157.167ZM85 145.851L86.1784 144.235L85 143.375L83.8216 144.235L85 145.851ZM100.519 157.167L99.3402 158.783L104.319 162.414L102.421 156.552L100.519 157.167ZM94.591 138.856L93.4126 137.24L92.2421 138.094L92.6882 139.472L94.591 138.856ZM110.11 127.54L111.288 129.156L116.247 125.54H110.11V127.54ZM58.905 27.9236L52.9774 9.61255L49.1719 10.8445L55.0994 29.1555L58.905 27.9236ZM76.1843 26.5396H57.0022V30.5396H76.1843V26.5396ZM61.8441 41.4724L77.3627 30.1555L75.0058 26.9236L59.4872 38.2405L61.8441 41.4724ZM68.496 57.5515L62.5685 39.2405L58.7629 40.4724L64.6905 58.7834L68.496 57.5515ZM49.8962 48.4666L65.4148 59.7834L67.7717 56.5515L52.2531 45.2347L49.8962 48.4666ZM36.7345 59.7834L52.2531 48.4666L49.8962 45.2347L34.3776 56.5515L36.7345 59.7834ZM39.5809 39.2405L33.6533 57.5515L37.4589 58.7834L43.3864 40.4724L39.5809 39.2405ZM24.7866 30.1555L40.3052 41.4724L42.6621 38.2405L27.1435 26.9236L24.7866 30.1555ZM45.1471 26.5396H25.965V30.5396H45.1471V26.5396ZM49.1719 9.61255L43.2443 27.9236L47.0499 29.1555L52.9774 10.8445L49.1719 9.61255ZM126.756 27.9236L120.828 9.61255L117.023 10.8445L122.95 29.1555L126.756 27.9236ZM144.035 26.5396H124.853V30.5396H144.035V26.5396ZM129.695 41.4724L145.213 30.1555L142.857 26.9236L127.338 38.2405L129.695 41.4724ZM136.347 57.5515L130.419 39.2405L126.614 40.4724L132.541 58.7834L136.347 57.5515ZM117.747 48.4666L133.266 59.7834L135.622 56.5515L120.104 45.2347L117.747 48.4666ZM104.585 59.7834L120.104 48.4666L117.747 45.2347L102.228 56.5515L104.585 59.7834ZM107.432 39.2405L101.504 57.5515L105.31 58.7834L111.237 40.4724L107.432 39.2405ZM92.6373 30.1555L108.156 41.4724L110.513 38.2405L94.9942 26.9236L92.6373 30.1555ZM112.998 26.5396H93.8158V30.5396H112.998V26.5396ZM117.023 9.61255L111.095 27.9236L114.901 29.1555L120.828 10.8445L117.023 9.61255ZM29.7596 68.8445L35.6872 87.1555L39.4927 85.9236L33.5652 67.6126L29.7596 68.8445ZM27.6376 87.1555L33.5652 68.8445L29.7596 67.6126L23.832 85.9236L27.6376 87.1555ZM6.55278 88.5396H25.7348V84.5396H6.55278V88.5396ZM23.2498 96.2405L7.73121 84.9236L5.37435 88.1555L20.8929 99.4724L23.2498 96.2405ZM18.0466 116.783L23.9742 98.4724L20.1686 97.2405L14.241 115.552L18.0466 116.783ZM30.484 103.235L14.9654 114.552L17.3222 117.783L32.8408 106.467L30.484 103.235ZM48.3594 114.552L32.8408 103.235L30.484 106.467L46.0025 117.783L48.3594 114.552ZM39.3506 98.4724L45.2782 116.783L49.0838 115.552L43.1562 97.2405L39.3506 98.4724ZM55.5936 84.9236L40.075 96.2405L42.4318 99.4724L57.9504 88.1555L55.5936 84.9236ZM37.59 88.5396H56.772V84.5396H37.59V88.5396ZM146.168 85.9236L140.24 67.6126L136.435 68.8445L142.362 87.1555L146.168 85.9236ZM163.447 84.5396H144.265V88.5396H163.447V84.5396ZM149.107 99.4724L164.626 88.1555L162.269 84.9236L146.75 96.2405L149.107 99.4724ZM155.759 115.552L149.831 97.2405L146.026 98.4724L151.953 116.783L155.759 115.552ZM137.159 106.467L152.678 117.783L155.035 114.552L139.516 103.235L137.159 106.467ZM123.997 117.783L139.516 106.467L137.159 103.235L121.641 114.552L123.997 117.783ZM126.844 97.2405L120.916 115.552L124.722 116.783L130.649 98.4724L126.844 97.2405ZM112.05 88.1555L127.568 99.4724L129.925 96.2405L114.406 84.9236L112.05 88.1555ZM132.41 84.5396H113.228V88.5396H132.41V84.5396ZM136.435 67.6126L130.507 85.9236L134.313 87.1555L140.24 68.8445L136.435 67.6126ZM83.0972 109.844L89.0248 128.156L92.8304 126.924L86.9028 108.613L83.0972 109.844ZM80.9752 128.156L86.9028 109.844L83.0972 108.613L77.1697 126.924L80.9752 128.156ZM59.8904 129.54H79.0724V125.54H59.8904V129.54ZM76.5874 137.24L61.0688 125.924L58.712 129.156L74.2306 140.472L76.5874 137.24ZM71.3842 157.783L77.3118 139.472L73.5062 138.24L67.5786 156.552L71.3842 157.783ZM83.8216 144.235L68.303 155.552L70.6598 158.783L86.1784 147.467L83.8216 144.235ZM101.697 155.552L86.1784 144.235L83.8216 147.467L99.3402 158.783L101.697 155.552ZM92.6882 139.472L98.6158 157.783L102.421 156.552L96.4938 138.24L92.6882 139.472ZM108.931 125.924L93.4126 137.24L95.7695 140.472L111.288 129.156L108.931 125.924ZM90.9276 129.54H110.11V125.54H90.9276V129.54Z" fill="white" mask="url(#path-1-inside-1_110_471)"/>
</svg>
