<svg width="170" height="170" viewBox="0 0 170 170" fill="none" xmlns="http://www.w3.org/2000/svg">
<path fill-rule="evenodd" clip-rule="evenodd" d="M90.3687 31.8111L85.5005 16.8483L80.6324 31.8111H64.8856L77.625 41.0545L72.7577 56.0148L85.5005 46.7688L98.2434 56.0148L93.3761 41.0545L106.115 31.8111H90.3687ZM110.737 30.3111L95.14 41.6279L101.098 59.9389L85.5005 48.6221L69.9036 59.9389L75.8611 41.6279L60.2641 30.3111H79.543L85.5005 12L91.4581 30.3111H110.737ZM46.7922 51.0471L42.9432 38.948L39.0943 51.0471H26.5308L36.6949 58.5896L32.8331 70.7288L42.9432 63.2263L53.0534 70.7288L49.1916 58.5896L59.3557 51.0471H46.7922ZM63.8942 49.5471L50.9458 59.1558L55.8917 74.7029L42.9432 65.0942L29.9948 74.7029L34.9407 59.1558L21.9922 49.5471H37.9974L42.9432 34L47.8891 49.5471H63.8942ZM132.003 49.5471L127.057 34L122.111 49.5471H106.106L119.054 59.1558L114.108 74.7029L127.057 65.0942L140.005 74.7029L135.059 59.1558L148.008 49.5471H132.003ZM143.469 51.0471H130.906L127.057 38.948L123.208 51.0471H110.644L120.808 58.5896L116.947 70.7288L127.057 63.2263L137.167 70.7288L133.305 58.5896L143.469 51.0471Z" fill="white"/>
</svg>
