<svg width="170" height="170" viewBox="0 0 170 170" fill="none" xmlns="http://www.w3.org/2000/svg">
<path fill-rule="evenodd" clip-rule="evenodd" d="M90.9496 49.3416L85 31.0305L79.0504 49.3416H59.797L75.3733 60.6584L69.4237 78.9695L85 67.6526L100.576 78.9695L94.6267 60.6584L110.203 49.3416H90.9496ZM104.048 51.3416H89.4965L85 37.5027L80.5035 51.3416H65.9524L77.7245 59.8945L73.2279 73.7334L85 65.1805L96.7721 73.7334L92.2756 59.8945L104.048 51.3416ZM90.9496 109.342L85 91.0305L79.0504 109.342H59.797L75.3733 120.658L69.4237 138.969L85 127.653L100.576 138.969L94.6267 120.658L110.203 109.342H90.9496ZM104.048 111.342H89.4965L85 97.5027L80.5035 111.342H65.9524L77.7244 119.894L73.2279 133.733L85 125.18L96.7721 133.733L92.2755 119.894L104.048 111.342Z" fill="white"/>
</svg>
