<svg width="170" height="171" viewBox="0 0 170 171" fill="none" xmlns="http://www.w3.org/2000/svg">
<path fill-rule="evenodd" clip-rule="evenodd" d="M85 7.68201L87.9162 17.0103H97.3532L89.7185 22.7755L92.6347 32.1037L85 26.3385L77.3653 32.1037L80.2815 22.7755L72.6468 17.0103H82.0838L85 7.68201ZM57.0043 27.7377L53.5273 16.682L50.0504 27.7377H38.7986L47.9015 34.5706L44.4245 45.6263L53.5273 38.7935L62.6302 45.6263L59.1532 34.5706L68.2561 27.7377H57.0043ZM36.9197 53.8472L32.5454 39.682L28.1711 53.8472H14.0156L25.4676 62.6017L21.0933 76.7669L32.5454 68.0123L43.9974 76.7669L39.6231 62.6017L51.0751 53.8472H36.9197ZM116.473 16.682L119.95 27.7377H131.202L122.099 34.5706L125.576 45.6263L116.473 38.7935L107.37 45.6263L110.847 34.5706L101.744 27.7377H112.996L116.473 16.682ZM141.829 53.8472L137.455 39.682L133.08 53.8472H118.925L130.377 62.6017L126.003 76.7669L137.455 68.0123L148.907 76.7669L144.532 62.6017L155.984 53.8472H141.829ZM90.1596 50.9201L85.0002 34.682L79.8407 50.9201H63.1445L76.6521 60.9558L71.4926 77.1939L85.0002 67.1582L98.5077 77.1939L93.3483 60.9558L106.856 50.9201H90.1596Z" fill="white"/>
</svg>
