<?xml version="1.0" encoding="utf-8"?>
<!-- Generator: Adobe Illustrator 27.5.0, SVG Export Plug-In . SVG Version: 6.00 Build 0)  -->
<svg version="1.1" id="Layer_1" xmlns="http://www.w3.org/2000/svg" xmlns:xlink="http://www.w3.org/1999/xlink" x="0px" y="0px"
	 viewBox="0 0 100 100" style="enable-background:new 0 0 100 100;" xml:space="preserve">
<circle cx="74" cy="48.9" r="6.4"/>
<path d="M50-0.1C22.8-0.1,0.7,21.6,0,48.6c0,0.3,0,0.7,0,1c0,0.1,0,0.2,0,0.3C0,50,0,50,0,50.1c0,0,0,0.1,0,0.1h0
	c0.2,27.5,22.5,49.7,50,49.7c27.6,0,50-22.4,50-50C100,22.3,77.6-0.1,50-0.1z M25,55.3c-3.5,0-6.4-2.9-6.4-6.4s2.9-6.4,6.4-6.4
	s6.4,2.9,6.4,6.4S28.5,55.3,25,55.3z M86.5,62.3c-2.9,3.3-6.7,4.8-11.5,4.8c-8.2,0.1-15.3-5.6-21-17.1l-4-7.8
	c-6.6-11.9-15.1-18-25.4-18c-2.5-0.1-4.9,0.3-7.2,1C24.8,15.5,36.7,9.1,50,9.1c22.5,0,40.8,18.2,40.8,40.7l0,0
	C90.8,54.9,89.5,59.2,86.5,62.3z"/>
</svg>
