<svg width="170" height="171" viewBox="0 0 170 171" fill="none" xmlns="http://www.w3.org/2000/svg">
<mask id="path-1-inside-1_103_185" fill="white">
<path d="M85 20.682L90.9496 38.9931H110.203L94.6267 50.3099L100.576 68.621L85 57.3041L69.4237 68.621L75.3733 50.3099L59.797 38.9931H79.0504L85 20.682Z"/>
</mask>
<path d="M85 20.682L90.9496 38.9931H110.203L94.6267 50.3099L100.576 68.621L85 57.3041L69.4237 68.621L75.3733 50.3099L59.797 38.9931H79.0504L85 20.682Z" fill="white"/>
<path d="M85 20.682L88.8042 19.4459L85 7.73773L81.1958 19.4459L85 20.682ZM90.9496 38.9931L87.1454 40.2291L88.0434 42.9931H90.9496V38.9931ZM110.203 38.9931L112.554 42.2291L122.514 34.9931H110.203V38.9931ZM94.6267 50.3099L92.2755 47.0738L89.9244 48.782L90.8225 51.546L94.6267 50.3099ZM100.576 68.621L98.2252 71.857L108.185 79.0931L104.381 67.3849L100.576 68.621ZM85 57.3041L87.3511 54.068L85 52.3598L82.6489 54.068L85 57.3041ZM69.4237 68.621L65.6195 67.3849L61.8152 79.0931L71.7748 71.857L69.4237 68.621ZM75.3733 50.3099L79.1775 51.546L80.0756 48.782L77.7244 47.0738L75.3733 50.3099ZM59.797 38.9931V34.9931H47.4863L57.4459 42.2291L59.797 38.9931ZM79.0504 38.9931V42.9931H81.9565L82.8546 40.2291L79.0504 38.9931ZM81.1958 21.9181L87.1454 40.2291L94.7538 37.757L88.8042 19.4459L81.1958 21.9181ZM90.9496 42.9931H110.203V34.9931H90.9496V42.9931ZM107.852 35.757L92.2755 47.0738L96.9778 53.546L112.554 42.2291L107.852 35.757ZM90.8225 51.546L96.7721 69.857L104.381 67.3849L98.4309 49.0738L90.8225 51.546ZM102.927 65.3849L87.3511 54.068L82.6489 60.5402L98.2252 71.857L102.927 65.3849ZM82.6489 54.068L67.0725 65.3849L71.7748 71.857L87.3511 60.5402L82.6489 54.068ZM73.2279 69.857L79.1775 51.546L71.5691 49.0738L65.6195 67.3849L73.2279 69.857ZM77.7244 47.0738L62.1481 35.757L57.4459 42.2291L73.0222 53.546L77.7244 47.0738ZM59.797 42.9931H79.0504V34.9931H59.797V42.9931ZM82.8546 40.2291L88.8042 21.9181L81.1958 19.4459L75.2461 37.757L82.8546 40.2291Z" fill="white" mask="url(#path-1-inside-1_103_185)"/>
</svg>
