<svg width="170" height="171" viewBox="0 0 170 171" fill="none" xmlns="http://www.w3.org/2000/svg">
<mask id="path-1-inside-1_110_456" fill="white">
<path fill-rule="evenodd" clip-rule="evenodd" d="M90.9496 49.5396L85 31.2285L79.0504 49.5396H59.797L75.3733 60.8564L69.4237 79.1675L85 67.8506L100.576 79.1675L94.6267 60.8564L110.203 49.5396H90.9496ZM90.9496 109.54L85 91.2285L79.0504 109.54H59.797L75.3733 120.856L69.4237 139.167L85 127.851L100.576 139.167L94.6267 120.856L110.203 109.54H90.9496Z"/>
</mask>
<path fill-rule="evenodd" clip-rule="evenodd" d="M90.9496 49.5396L85 31.2285L79.0504 49.5396H59.797L75.3733 60.8564L69.4237 79.1675L85 67.8506L100.576 79.1675L94.6267 60.8564L110.203 49.5396H90.9496ZM90.9496 109.54L85 91.2285L79.0504 109.54H59.797L75.3733 120.856L69.4237 139.167L85 127.851L100.576 139.167L94.6267 120.856L110.203 109.54H90.9496Z" fill="white"/>
<path d="M85 31.2285L86.9021 30.6105L85 24.7564L83.0979 30.6105L85 31.2285ZM90.9496 49.5396L89.0475 50.1576L89.4965 51.5396H90.9496V49.5396ZM79.0504 49.5396V51.5396H80.5035L80.9525 50.1576L79.0504 49.5396ZM59.797 49.5396V47.5396H53.6416L58.6214 51.1576L59.797 49.5396ZM75.3733 60.8564L77.2754 61.4745L77.7245 60.0925L76.5489 59.2384L75.3733 60.8564ZM69.4237 79.1675L67.5216 78.5494L65.6195 84.4035L70.5993 80.7855L69.4237 79.1675ZM85 67.8506L86.1756 66.2326L85 65.3785L83.8244 66.2326L85 67.8506ZM100.576 79.1675L99.4007 80.7855L104.381 84.4035L102.478 78.5494L100.576 79.1675ZM94.6267 60.8564L93.4511 59.2384L92.2755 60.0925L92.7246 61.4745L94.6267 60.8564ZM110.203 49.5396L111.379 51.1576L116.358 47.5396H110.203V49.5396ZM85 91.2285L86.9021 90.6105L85 84.7564L83.0979 90.6105L85 91.2285ZM90.9496 109.54L89.0475 110.158L89.4965 111.54H90.9496V109.54ZM79.0504 109.54V111.54H80.5035L80.9525 110.158L79.0504 109.54ZM59.797 109.54V107.54H53.6416L58.6214 111.158L59.797 109.54ZM75.3733 120.856L77.2754 121.474L77.7244 120.092L76.5489 119.238L75.3733 120.856ZM69.4237 139.167L67.5216 138.549L65.6195 144.404L70.5993 140.785L69.4237 139.167ZM85 127.851L86.1756 126.233L85 125.378L83.8244 126.233L85 127.851ZM100.576 139.167L99.4007 140.785L104.381 144.404L102.478 138.549L100.576 139.167ZM94.6267 120.856L93.4511 119.238L92.2755 120.092L92.7246 121.474L94.6267 120.856ZM110.203 109.54L111.379 111.158L116.358 107.54H110.203V109.54ZM83.0979 31.8465L89.0475 50.1576L92.8517 48.9215L86.9021 30.6105L83.0979 31.8465ZM80.9525 50.1576L86.9021 31.8465L83.0979 30.6105L77.1483 48.9215L80.9525 50.1576ZM59.797 51.5396H79.0504V47.5396H59.797V51.5396ZM76.5489 59.2384L60.9726 47.9215L58.6214 51.1576L74.1977 62.4745L76.5489 59.2384ZM71.3258 79.7855L77.2754 61.4745L73.4712 60.2384L67.5216 78.5494L71.3258 79.7855ZM83.8244 66.2326L68.2481 77.5494L70.5993 80.7855L86.1756 69.4687L83.8244 66.2326ZM101.752 77.5494L86.1756 66.2326L83.8244 69.4687L99.4007 80.7855L101.752 77.5494ZM92.7246 61.4745L98.6742 79.7855L102.478 78.5494L96.5288 60.2384L92.7246 61.4745ZM109.027 47.9215L93.4511 59.2384L95.8023 62.4745L111.379 51.1576L109.027 47.9215ZM90.9496 51.5396H110.203V47.5396H90.9496V51.5396ZM83.0979 91.8465L89.0475 110.158L92.8517 108.922L86.9021 90.6105L83.0979 91.8465ZM80.9525 110.158L86.9021 91.8465L83.0979 90.6105L77.1483 108.922L80.9525 110.158ZM59.797 111.54H79.0504V107.54H59.797V111.54ZM76.5489 119.238L60.9726 107.922L58.6214 111.158L74.1977 122.474L76.5489 119.238ZM71.3258 139.785L77.2754 121.474L73.4712 120.238L67.5216 138.549L71.3258 139.785ZM83.8244 126.233L68.2481 137.549L70.5993 140.785L86.1756 129.469L83.8244 126.233ZM101.752 137.549L86.1756 126.233L83.8244 129.469L99.4007 140.785L101.752 137.549ZM92.7246 121.474L98.6742 139.785L102.478 138.549L96.5288 120.238L92.7246 121.474ZM109.027 107.922L93.4511 119.238L95.8023 122.474L111.379 111.158L109.027 107.922ZM90.9496 111.54H110.203V107.54H90.9496V111.54Z" fill="white" mask="url(#path-1-inside-1_110_456)"/>
</svg>
