<svg width="170" height="171" viewBox="0 0 170 171" fill="none" xmlns="http://www.w3.org/2000/svg">
<path fill-rule="evenodd" clip-rule="evenodd" d="M84.9999 35.7285L90.9574 54.0396H110.236L94.6394 65.3564L100.597 83.6675L84.9999 72.3506L69.403 83.6675L75.3605 65.3564L59.7635 54.0396H79.0424L84.9999 35.7285ZM49.9434 80.7285L55.7685 99.0396H74.619L59.3686 110.356L65.1938 128.667L49.9434 117.351L34.693 128.667L40.5181 110.356L25.2678 99.0396H44.1183L49.9434 80.7285ZM125.882 99.0396L120.057 80.7285L114.232 99.0396H95.381L110.631 110.356L104.806 128.667L120.057 117.351L135.307 128.667L129.482 110.356L144.732 99.0396H125.882Z" fill="white"/>
</svg>
