<?xml version="1.0" encoding="utf-8"?>
<!-- Generator: Adobe Illustrator 27.5.0, SVG Export Plug-In . SVG Version: 6.00 Build 0)  -->
<svg version="1.1"
	 id="Layer_1" xmlns:sodipodi="http://sodipodi.sourceforge.net/DTD/sodipodi-0.dtd" xmlns:svg="http://www.w3.org/2000/svg" xmlns:dc="http://purl.org/dc/elements/1.1/" xmlns:inkscape="http://www.inkscape.org/namespaces/inkscape" xmlns:cc="http://creativecommons.org/ns#" xmlns:rdf="http://www.w3.org/1999/02/22-rdf-syntax-ns#"
	 xmlns="http://www.w3.org/2000/svg" xmlns:xlink="http://www.w3.org/1999/xlink" x="0px" y="0px" viewBox="0 0 5.7 5.4"
	 style="enable-background:new 0 0 5.7 5.4;" xml:space="preserve">
<g>
	<path d="M5.7,3.8C5.6,3.4,5.3,3.4,5.2,3.4c-0.1,0-0.6-0.2-0.7-0.2c-0.1,0-0.2-0.1-0.4-0.1s-0.2,0-0.2,0L2.6,3.5
		c0,0-0.3,0.1-0.2,0.3C2.5,4.1,2.8,4,2.8,4s0.8-0.2,0.8-0.1S3.5,4,3.5,4c0,0-0.7,0.5-0.8,0.5c-0.1,0-1.8-0.1-1.8-0.1s-0.2,0-0.2,0.2
		C0.6,4.8,0.7,4.9,0.7,4.9s1.4,0.3,1.6,0.4c0.3,0,0.3,0.2,0.9-0.1c0.6-0.3,1.2-0.7,1.4-0.7c0.2,0,0.5,0,0.7-0.1
		C5.4,4.5,5.9,4.3,5.7,3.8z"/>
	<path d="M0.5,3.7c0,0,0,0.1,0,0.1l0.5,0c0,0,0-0.1,0-0.2c0-0.1,0-0.2,0-0.2c0.1,0,0.2-0.1,0.3-0.1C1.5,3.1,1.6,3.1,1.6,3
		c0.1-0.1,0.1-0.2,0.2-0.3c0-0.1,0.1-0.2,0.1-0.3c0-0.1,0-0.2-0.1-0.3c0-0.1-0.1-0.2-0.1-0.2C1.6,1.8,1.5,1.7,1.4,1.6
		C1.4,1.6,1.3,1.5,1.3,1.5c-0.1,0-0.1-0.1-0.1-0.1c0,0-0.1-0.1-0.1-0.1c0,0,0-0.1,0-0.1c0,0,0-0.1,0.1-0.1c0,0,0.1,0,0.1,0
		c0,0,0.1,0,0.1,0c0,0,0.1,0,0.1,0.1c0,0,0,0.1,0,0.2c0,0,0,0,0,0c0,0,0,0,0,0.1l0.6-0.1c0,0,0-0.1,0-0.1c0,0,0-0.1,0-0.1
		c0-0.1,0-0.2,0-0.2C2,0.7,2,0.6,2,0.6S1.8,0.5,1.8,0.5c-0.1,0-0.1,0-0.2,0L1.7,0L1.1,0.1c0,0.1,0,0.1-0.1,0.2c0,0.1,0,0.2-0.1,0.3
		c-0.1,0-0.2,0.1-0.3,0.1S0.6,0.8,0.5,0.9C0.5,0.9,0.4,1,0.4,1.1c0,0.1-0.1,0.2-0.1,0.3c0,0.1,0,0.2,0.1,0.2c0,0.1,0.1,0.1,0.1,0.2
		C0.5,1.9,0.6,1.9,0.7,2C0.7,2,0.8,2.1,0.8,2.1C0.9,2.2,0.9,2.2,1,2.3C1,2.3,1,2.4,1,2.4c0,0.1,0,0.2-0.1,0.2
		c-0.1,0-0.1,0.1-0.2,0.1c0,0-0.1,0-0.1,0c0,0-0.1-0.1-0.1-0.1c0,0-0.1-0.1-0.1-0.1c0,0-0.1-0.1-0.1-0.1L0,3
		c0.1,0.1,0.2,0.2,0.3,0.3c0.1,0.1,0.2,0.1,0.3,0.1c0,0,0,0.1,0,0.1C0.6,3.6,0.6,3.6,0.5,3.7z"/>
</g>
</svg>
