<?xml version="1.0" encoding="utf-8"?>
<!-- Generator: Adobe Illustrator 27.5.0, SVG Export Plug-In . SVG Version: 6.00 Build 0)  -->
<svg version="1.1"
	 id="Layer_1" xmlns:sodipodi="http://sodipodi.sourceforge.net/DTD/sodipodi-0.dtd" xmlns:svg="http://www.w3.org/2000/svg" xmlns:dc="http://purl.org/dc/elements/1.1/" xmlns:inkscape="http://www.inkscape.org/namespaces/inkscape" xmlns:cc="http://creativecommons.org/ns#" xmlns:rdf="http://www.w3.org/1999/02/22-rdf-syntax-ns#"
	 xmlns="http://www.w3.org/2000/svg" xmlns:xlink="http://www.w3.org/1999/xlink" x="0px" y="0px" viewBox="0 0 6.4 5.4"
	 style="enable-background:new 0 0 6.4 5.4;" xml:space="preserve">
<path d="M4.9,0.3C4.9,0.2,4.6,0,4.6,0c0,0-1.2,0.1-2,0.1S0.3,0,0.3,0C0.2,0,0,0.2,0,0.3v0.1c0,0,0.1,0.9,0.1,2c0,1-0.1,2.1-0.1,2.1
	c0.3,0.8,1.2,0.9,2.4,0.9c1.3,0,2.1-0.1,2.4-0.9h0.1c0.9,0,1.4-1.4,1.4-2.4C6.4,1.1,5.9,0.3,4.9,0.3z M3.5,1.9c0,0,0,0.1,0,0.1
	L2.8,2.1c0,0,0-0.1,0-0.1c0,0,0,0,0,0c0-0.1,0-0.2,0-0.2c0,0-0.1-0.1-0.1-0.1c0,0-0.1,0-0.1,0c0,0-0.1,0-0.1,0c0,0,0,0-0.1,0.1
	c0,0,0,0.1,0,0.1c0,0,0,0.1,0.1,0.1c0,0,0.1,0.1,0.1,0.1c0.1,0,0.1,0.1,0.2,0.1C2.9,2.5,2.9,2.6,3,2.6C3,2.7,3.1,2.8,3.1,2.9
	c0,0.1,0.1,0.2,0.1,0.3c0,0.1,0,0.2-0.1,0.3C3.1,3.6,3,3.7,3,3.8C2.9,3.9,2.8,4,2.7,4C2.7,4.1,2.6,4.1,2.5,4.2c0,0.1,0,0.2,0,0.2
	c0,0.1,0,0.1,0,0.2l-0.5,0c0,0,0-0.1,0-0.1c0,0,0-0.1,0-0.1c0,0,0-0.1,0-0.1c-0.1,0-0.2,0-0.3-0.1C1.6,4.1,1.5,4,1.4,3.8l0.3-0.6
	c0,0,0,0.1,0.1,0.1c0,0,0.1,0.1,0.1,0.1c0,0,0.1,0.1,0.1,0.1c0,0,0.1,0,0.1,0c0.1,0,0.1,0,0.2-0.1c0.1,0,0.1-0.1,0.1-0.2
	c0-0.1,0-0.1-0.1-0.2C2.3,3,2.3,3,2.2,2.9C2.1,2.9,2.1,2.8,2,2.8C2,2.7,1.9,2.7,1.8,2.6C1.8,2.5,1.8,2.5,1.7,2.4
	c0-0.1-0.1-0.1-0.1-0.2c0-0.1,0-0.2,0.1-0.3c0-0.1,0.1-0.2,0.2-0.2C1.9,1.6,2,1.6,2.1,1.5s0.2-0.1,0.3-0.1c0-0.1,0-0.2,0.1-0.3
	c0-0.1,0-0.1,0.1-0.2l0.6-0.1L2.9,1.2c0.1,0,0.1,0,0.2,0c0.1,0,0.1,0.1,0.2,0.1s0.1,0.1,0.1,0.2c0,0.1,0,0.1,0,0.2
	C3.5,1.8,3.5,1.9,3.5,1.9z M4.9,3.8c-0.1,0-0.2-0.9-0.2-1.4s0-1.3,0-1.3s0,0,0.1,0c0.5,0,0.7,0.5,0.7,1C5.6,2.6,5.5,3.8,4.9,3.8z"/>
</svg>
