<svg width="170" height="171" viewBox="0 0 170 171" fill="none" xmlns="http://www.w3.org/2000/svg">
<path fill-rule="evenodd" clip-rule="evenodd" d="M48.5 14.7988L53.3271 29.655H68.9477L56.3104 38.8366L61.1374 53.6927L48.5 44.5111L35.8626 53.6927L40.6897 38.8366L28.0523 29.655H43.673L48.5 14.7988ZM85.5864 48.4832L92.9545 71.2442H116.798L97.5082 85.3113L104.876 108.072L85.5864 94.0053L66.2964 108.072L73.6645 85.3113L54.3745 71.2442H78.2183L85.5864 48.4832ZM126.327 29.655L121.5 14.7988L116.673 29.655H101.052L113.69 38.8366L108.863 53.6927L121.5 44.5111L134.137 53.6927L129.31 38.8366L141.948 29.655H126.327ZM52.5 111.799L57.3271 127H72.9477L60.3104 136.396L65.1374 151.597L52.5 142.202L39.8626 151.597L44.6897 136.396L32.0523 127H47.673L52.5 111.799ZM122.327 127L117.5 111.799L112.673 127H97.0523L109.69 136.396L104.863 151.597L117.5 142.202L130.137 151.597L125.31 136.396L137.948 127H122.327ZM27 65.7988L31.9393 80.655H47.9233L34.992 89.8366L39.9313 104.693L27 95.5111L14.0687 104.693L19.0081 89.8366L6.07678 80.655H22.0607L27 65.7988ZM147.939 80.655L143 65.7988L138.061 80.655H122.077L135.008 89.8366L130.069 104.693L143 95.5111L155.931 104.693L150.992 89.8366L163.923 80.655H147.939Z" fill="white"/>
</svg>
