<?xml version="1.0" encoding="utf-8"?>
<!-- Generator: Adobe Illustrator 27.5.0, SVG Export Plug-In . SVG Version: 6.00 Build 0)  -->
<svg version="1.1" id="Layer_1" xmlns="http://www.w3.org/2000/svg" xmlns:xlink="http://www.w3.org/1999/xlink" x="0px" y="0px"
	 viewBox="0 0 369 369" style="enable-background:new 0 0 369 369;" xml:space="preserve">
<style type="text/css">
	.st0{fill-rule:evenodd;clip-rule:evenodd;}
</style>
<g>
	<path class="st0" d="M184,0c102,0,185,83,185,184c0,102-83,185-185,185C83,369,0,286,0,184C0,83,83,0,184,0z M192,71
		c17,0,30,14,30,30c-1,17-14,30-30,30c-17,0-30-14-30-30C162,84,176,71,192,71z M235,273c-9,33-97,36-91-9c4-30,10-59,15-88
		c3-19-9-13-20-17c-7-3-7-12,2-14c11-3,50-1,63-1c7,0,11,4,12,11c0,6-1,11-2,17c-5,28-12,58-16,86c0,6,1,17,10,16c9,0,13-4,20-7
		C232,265,236,268,235,273z"/>
</g>
</svg>
