<svg width="170" height="170" viewBox="0 0 170 170" fill="none" xmlns="http://www.w3.org/2000/svg">
<path fill-rule="evenodd" clip-rule="evenodd" d="M91.1056 41.2319L85.2805 22.9209L79.4554 41.2319H60.6049L75.8553 52.5488L70.0301 70.8598L85.2805 59.543L100.531 70.8598L94.7058 52.5488L109.956 41.2319H91.1056ZM103.905 43.2319H89.6431L85.2805 29.5183L80.9179 43.2319H66.6562L78.1942 51.7939L73.8146 65.561L85.2805 57.0525L96.7465 65.561L92.3669 51.7939L103.905 43.2319ZM133.106 78.9514L127.281 60.6404L121.455 78.9514H102.605L117.855 90.2683L112.03 108.579L127.281 97.2625L142.531 108.579L136.706 90.2683L151.956 78.9514H133.106ZM145.905 80.9514H131.643L127.281 67.2378L122.918 80.9514H108.656L120.194 89.5134L115.815 103.281L127.281 94.772L138.746 103.281L134.367 89.5134L145.905 80.9514ZM47.7853 80.9514L43.2803 67.1048L38.7753 80.9514H24.2059L35.9928 89.5038L31.4888 103.347L43.2803 94.7915L55.0718 103.347L50.5679 89.5038L62.3548 80.9514H47.7853ZM68.5167 78.9514L52.9198 90.2683L58.8773 108.579L43.2803 97.2625L27.6833 108.579L33.6409 90.2683L18.0439 78.9514H37.3228L43.2803 60.6404L49.2378 78.9514H68.5167ZM91.1056 117.451L85.2805 99.1404L79.4554 117.451H60.6049L75.8553 128.768L70.0301 147.079L85.2805 135.762L100.531 147.079L94.7058 128.768L109.956 117.451H91.1056ZM103.905 119.451H89.6431L85.2805 105.738L80.9179 119.451H66.6562L78.1942 128.013L73.8146 141.781L85.2805 133.272L96.7465 141.781L92.3669 128.013L103.905 119.451Z" fill="white"/>
</svg>
