<svg width="170" height="170" viewBox="0 0 170 170" fill="none" xmlns="http://www.w3.org/2000/svg">
<path fill-rule="evenodd" clip-rule="evenodd" d="M57.0022 28.3416L51.0746 10.0305L45.1471 28.3416H25.965L41.4836 39.6584L35.5561 57.9695L51.0746 46.6526L66.5932 57.9695L60.6657 39.6584L76.1842 28.3416H57.0022ZM70.0473 30.3416H55.5475L51.0746 16.5244L46.6018 30.3416H32.102L43.8326 38.8961L39.3568 52.7225L51.0746 44.1773L62.7925 52.7225L58.3167 38.8961L70.0473 30.3416ZM90.9276 73.1131L85 54.802L79.0724 73.1131H59.8904L75.409 84.4299L69.4814 102.741L85 91.4241L100.519 102.741L94.591 84.4299L110.11 73.1131H90.9276ZM103.973 75.1131H89.4728L85 61.2959L80.5272 75.1131H66.0273L77.7579 83.6676L73.2821 97.494L85 88.9488L96.7179 97.494L92.2421 83.6676L103.973 75.1131ZM123.398 30.3416L118.925 16.5244L114.453 30.3416H99.9527L111.683 38.8961L107.207 52.7225L118.925 44.1773L130.643 52.7225L126.167 38.8961L137.898 30.3416H123.398ZM144.035 28.3416L128.516 39.6584L134.444 57.9695L118.925 46.6526L103.407 57.9695L109.334 39.6584L93.8158 28.3416H112.998L118.925 10.0305L124.853 28.3416H144.035ZM37.59 88.3416L31.6624 70.0305L25.7348 88.3416H6.55278L22.0714 99.6584L16.1438 117.969L31.6624 106.653L47.181 117.969L41.2534 99.6584L56.772 88.3416H37.59ZM50.6351 90.3416H36.1352L31.6624 76.5244L27.1896 90.3416H12.6897L24.4203 98.8961L19.9445 112.723L31.6624 104.177L43.3803 112.723L38.9044 98.8961L50.6351 90.3416ZM142.81 90.3416L138.338 76.5244L133.865 90.3416H119.365L131.096 98.8961L126.62 112.723L138.338 104.177L150.056 112.723L145.58 98.8961L157.31 90.3416H142.81ZM163.447 88.3416L147.929 99.6584L153.856 117.969L138.338 106.653L122.819 117.969L128.747 99.6584L113.228 88.3416H132.41L138.338 70.0305L144.265 88.3416H163.447ZM90.9276 127.342L85 109.031L79.0724 127.342H59.8904L75.409 138.658L69.4814 156.969L85 145.653L100.519 156.969L94.591 138.658L110.11 127.342H90.9276ZM103.973 129.342H89.4728L85 115.524L80.5272 129.342H66.0273L77.7579 137.896L73.2821 151.723L85 143.177L96.7179 151.723L92.2421 137.896L103.973 129.342Z" fill="white"/>
</svg>
