<svg width="170" height="170" viewBox="0 0 170 170" fill="none" xmlns="http://www.w3.org/2000/svg">
<path fill-rule="evenodd" clip-rule="evenodd" d="M89.505 55.8416L84.9999 41.9949L80.4949 55.8416H65.9255L77.7124 64.3939L73.2084 78.2373L84.9999 69.6816L96.7914 78.2373L92.2875 64.3939L104.074 55.8416H89.505ZM110.236 53.8416L94.6394 65.1584L100.597 83.4695L84.9999 72.1526L69.403 83.4695L75.3605 65.1584L59.7635 53.8416H79.0424L84.9999 35.5305L90.9574 53.8416H110.236ZM54.306 100.842L49.9434 87.1279L45.5808 100.842H31.3191L42.857 109.404L38.4774 123.171L49.9434 114.662L61.4093 123.171L57.0297 109.404L68.5677 100.842H54.306ZM74.619 98.8416L59.3686 110.158L65.1938 128.469L49.9434 117.153L34.693 128.469L40.5181 110.158L25.2678 98.8416H44.1183L49.9434 80.5305L55.7685 98.8416H74.619ZM125.882 98.8416L120.057 80.5305L114.232 98.8416H95.381L110.631 110.158L104.806 128.469L120.057 117.153L135.307 128.469L129.482 110.158L144.732 98.8416H125.882ZM138.681 100.842H124.419L120.057 87.1279L115.694 100.842H101.432L112.97 109.404L108.591 123.171L120.057 114.662L131.523 123.171L127.143 109.404L138.681 100.842Z" fill="white"/>
</svg>
