<svg width="170" height="171" viewBox="0 0 170 171" fill="none" xmlns="http://www.w3.org/2000/svg">
<mask id="path-1-inside-1_110_478" fill="white">
<path fill-rule="evenodd" clip-rule="evenodd" d="M57.0022 28.5396L51.0746 10.2285L45.1471 28.5396H25.965L41.4836 39.8564L35.5561 58.1675L51.0746 46.8506L66.5932 58.1675L60.6657 39.8564L76.1843 28.5396H57.0022ZM90.9276 73.3111L85 55L79.0724 73.3111H59.8904L75.409 84.6279L69.4814 102.939L85 91.6221L100.519 102.939L94.591 84.6279L110.11 73.3111H90.9276ZM118.925 10.2285L124.853 28.5396H144.035L128.516 39.8564L134.444 58.1675L118.925 46.8506L103.407 58.1675L109.334 39.8564L93.8158 28.5396H112.998L118.925 10.2285ZM37.59 88.5396L31.6624 70.2285L25.7348 88.5396H6.55278L22.0714 99.8564L16.1438 118.167L31.6624 106.851L47.181 118.167L41.2534 99.8564L56.772 88.5396H37.59ZM138.338 70.2285L144.265 88.5396H163.447L147.929 99.8564L153.856 118.167L138.338 106.851L122.819 118.167L128.747 99.8564L113.228 88.5396H132.41L138.338 70.2285ZM90.9276 127.54L85 109.229L79.0724 127.54H59.8904L75.409 138.856L69.4814 157.167L85 145.851L100.519 157.167L94.591 138.856L110.11 127.54H90.9276Z"/>
</mask>
<path fill-rule="evenodd" clip-rule="evenodd" d="M57.0022 28.5396L51.0746 10.2285L45.1471 28.5396H25.965L41.4836 39.8564L35.5561 58.1675L51.0746 46.8506L66.5932 58.1675L60.6657 39.8564L76.1843 28.5396H57.0022ZM90.9276 73.3111L85 55L79.0724 73.3111H59.8904L75.409 84.6279L69.4814 102.939L85 91.6221L100.519 102.939L94.591 84.6279L110.11 73.3111H90.9276ZM118.925 10.2285L124.853 28.5396H144.035L128.516 39.8564L134.444 58.1675L118.925 46.8506L103.407 58.1675L109.334 39.8564L93.8158 28.5396H112.998L118.925 10.2285ZM37.59 88.5396L31.6624 70.2285L25.7348 88.5396H6.55278L22.0714 99.8564L16.1438 118.167L31.6624 106.851L47.181 118.167L41.2534 99.8564L56.772 88.5396H37.59ZM138.338 70.2285L144.265 88.5396H163.447L147.929 99.8564L153.856 118.167L138.338 106.851L122.819 118.167L128.747 99.8564L113.228 88.5396H132.41L138.338 70.2285ZM90.9276 127.54L85 109.229L79.0724 127.54H59.8904L75.409 138.856L69.4814 157.167L85 145.851L100.519 157.167L94.591 138.856L110.11 127.54H90.9276Z" fill="white"/>
<path d="M51.0746 10.2285L52.9774 9.61255L51.0746 3.7346L49.1719 9.61255L51.0746 10.2285ZM57.0022 28.5396L55.0994 29.1555L55.5475 30.5396H57.0022V28.5396ZM45.1471 28.5396V30.5396H46.6018L47.0499 29.1555L45.1471 28.5396ZM25.965 28.5396V26.5396H19.8281L24.7866 30.1555L25.965 28.5396ZM41.4836 39.8564L43.3864 40.4724L43.8326 39.0941L42.6621 38.2405L41.4836 39.8564ZM35.5561 58.1675L33.6533 57.5515L31.7554 63.4144L36.7345 59.7834L35.5561 58.1675ZM51.0746 46.8506L52.2531 45.2347L51.0746 44.3753L49.8962 45.2347L51.0746 46.8506ZM66.5932 58.1675L65.4148 59.7834L70.3939 63.4144L68.496 57.5515L66.5932 58.1675ZM60.6657 39.8564L59.4872 38.2405L58.3167 39.0941L58.7629 40.4724L60.6657 39.8564ZM76.1843 28.5396L77.3627 30.1555L82.3212 26.5396H76.1843V28.5396ZM85 55L86.9028 54.384L85 48.5061L83.0972 54.384L85 55ZM90.9276 73.3111L89.0248 73.927L89.4728 75.3111H90.9276V73.3111ZM79.0724 73.3111V75.3111H80.5272L80.9752 73.927L79.0724 73.3111ZM59.8904 73.3111V71.3111H53.7535L58.712 74.927L59.8904 73.3111ZM75.409 84.6279L77.3118 85.2439L77.7579 83.8656L76.5874 83.0119L75.409 84.6279ZM69.4814 102.939L67.5786 102.323L65.6807 108.186L70.6598 104.555L69.4814 102.939ZM85 91.6221L86.1784 90.0061L85 89.1468L83.8216 90.0061L85 91.6221ZM100.519 102.939L99.3402 104.555L104.319 108.186L102.421 102.323L100.519 102.939ZM94.591 84.6279L93.4126 83.0119L92.2421 83.8656L92.6882 85.2439L94.591 84.6279ZM110.11 73.3111L111.288 74.927L116.247 71.3111H110.11V73.3111ZM124.853 28.5396L122.95 29.1555L123.398 30.5396H124.853V28.5396ZM118.925 10.2285L120.828 9.61255L118.925 3.7346L117.023 9.61255L118.925 10.2285ZM144.035 28.5396L145.213 30.1555L150.172 26.5396H144.035V28.5396ZM128.516 39.8564L127.338 38.2405L126.167 39.0941L126.614 40.4724L128.516 39.8564ZM134.444 58.1675L133.266 59.7834L138.245 63.4144L136.347 57.5515L134.444 58.1675ZM118.925 46.8506L120.104 45.2347L118.925 44.3753L117.747 45.2347L118.925 46.8506ZM103.407 58.1675L101.504 57.5515L99.6061 63.4144L104.585 59.7834L103.407 58.1675ZM109.334 39.8564L111.237 40.4724L111.683 39.0941L110.513 38.2405L109.334 39.8564ZM93.8158 28.5396V26.5396H87.6788L92.6373 30.1555L93.8158 28.5396ZM112.998 28.5396V30.5396H114.453L114.901 29.1555L112.998 28.5396ZM31.6624 70.2285L33.5652 69.6126L31.6624 63.7346L29.7596 69.6126L31.6624 70.2285ZM37.59 88.5396L35.6872 89.1555L36.1352 90.5396H37.59V88.5396ZM25.7348 88.5396V90.5396H27.1896L27.6376 89.1555L25.7348 88.5396ZM6.55278 88.5396V86.5396H0.415861L5.37435 90.1555L6.55278 88.5396ZM22.0714 99.8564L23.9742 100.472L24.4203 99.0941L23.2498 98.2405L22.0714 99.8564ZM16.1438 118.167L14.241 117.552L12.3431 123.414L17.3222 119.783L16.1438 118.167ZM31.6624 106.851L32.8408 105.235L31.6624 104.375L30.484 105.235L31.6624 106.851ZM47.181 118.167L46.0025 119.783L50.9817 123.414L49.0838 117.552L47.181 118.167ZM41.2534 99.8564L40.075 98.2405L38.9044 99.0941L39.3506 100.472L41.2534 99.8564ZM56.772 88.5396L57.9504 90.1555L62.9089 86.5396H56.772V88.5396ZM144.265 88.5396L142.362 89.1555L142.81 90.5396H144.265V88.5396ZM138.338 70.2285L140.24 69.6126L138.338 63.7346L136.435 69.6126L138.338 70.2285ZM163.447 88.5396L164.626 90.1555L169.584 86.5396H163.447V88.5396ZM147.929 99.8564L146.75 98.2405L145.58 99.0941L146.026 100.472L147.929 99.8564ZM153.856 118.167L152.678 119.783L157.657 123.414L155.759 117.552L153.856 118.167ZM138.338 106.851L139.516 105.235L138.338 104.375L137.159 105.235L138.338 106.851ZM122.819 118.167L120.916 117.552L119.018 123.414L123.997 119.783L122.819 118.167ZM128.747 99.8564L130.649 100.472L131.096 99.0941L129.925 98.2405L128.747 99.8564ZM113.228 88.5396V86.5396H107.091L112.05 90.1555L113.228 88.5396ZM132.41 88.5396V90.5396H133.865L134.313 89.1555L132.41 88.5396ZM85 109.229L86.9028 108.613L85 102.735L83.0972 108.613L85 109.229ZM90.9276 127.54L89.0248 128.156L89.4728 129.54H90.9276V127.54ZM79.0724 127.54V129.54H80.5272L80.9752 128.156L79.0724 127.54ZM59.8904 127.54V125.54H53.7535L58.712 129.156L59.8904 127.54ZM75.409 138.856L77.3118 139.472L77.7579 138.094L76.5874 137.24L75.409 138.856ZM69.4814 157.167L67.5786 156.552L65.6807 162.414L70.6598 158.783L69.4814 157.167ZM85 145.851L86.1784 144.235L85 143.375L83.8216 144.235L85 145.851ZM100.519 157.167L99.3402 158.783L104.319 162.414L102.421 156.552L100.519 157.167ZM94.591 138.856L93.4126 137.24L92.2421 138.094L92.6882 139.472L94.591 138.856ZM110.11 127.54L111.288 129.156L116.247 125.54H110.11V127.54ZM49.1719 10.8445L55.0994 29.1555L58.905 27.9236L52.9774 9.61255L49.1719 10.8445ZM47.0499 29.1555L52.9774 10.8445L49.1719 9.61255L43.2443 27.9236L47.0499 29.1555ZM25.965 30.5396H45.1471V26.5396H25.965V30.5396ZM42.6621 38.2405L27.1435 26.9236L24.7866 30.1555L40.3052 41.4724L42.6621 38.2405ZM37.4588 58.7834L43.3864 40.4724L39.5808 39.2405L33.6533 57.5515L37.4588 58.7834ZM49.8962 45.2347L34.3776 56.5515L36.7345 59.7834L52.2531 48.4666L49.8962 45.2347ZM67.7717 56.5515L52.2531 45.2347L49.8962 48.4666L65.4148 59.7834L67.7717 56.5515ZM58.7629 40.4724L64.6905 58.7834L68.496 57.5515L62.5685 39.2405L58.7629 40.4724ZM75.0058 26.9236L59.4872 38.2405L61.8441 41.4724L77.3627 30.1555L75.0058 26.9236ZM57.0022 30.5396H76.1843V26.5396H57.0022V30.5396ZM83.0972 55.616L89.0248 73.927L92.8304 72.6951L86.9028 54.384L83.0972 55.616ZM80.9752 73.927L86.9028 55.616L83.0972 54.384L77.1696 72.6951L80.9752 73.927ZM59.8904 75.3111H79.0724V71.3111H59.8904V75.3111ZM76.5874 83.0119L61.0688 71.6951L58.712 74.927L74.2306 86.2439L76.5874 83.0119ZM71.3842 103.555L77.3118 85.2439L73.5062 84.0119L67.5786 102.323L71.3842 103.555ZM83.8216 90.0061L68.303 101.323L70.6598 104.555L86.1784 93.2381L83.8216 90.0061ZM101.697 101.323L86.1784 90.0061L83.8216 93.2381L99.3402 104.555L101.697 101.323ZM92.6882 85.2439L98.6158 103.555L102.421 102.323L96.4938 84.0119L92.6882 85.2439ZM108.931 71.6951L93.4126 83.0119L95.7694 86.2439L111.288 74.927L108.931 71.6951ZM90.9276 75.3111H110.11V71.3111H90.9276V75.3111ZM126.756 27.9236L120.828 9.61255L117.023 10.8445L122.95 29.1555L126.756 27.9236ZM144.035 26.5396H124.853V30.5396H144.035V26.5396ZM129.695 41.4724L145.213 30.1555L142.857 26.9236L127.338 38.2405L129.695 41.4724ZM136.347 57.5515L130.419 39.2405L126.614 40.4724L132.541 58.7834L136.347 57.5515ZM117.747 48.4666L133.266 59.7834L135.622 56.5515L120.104 45.2347L117.747 48.4666ZM104.585 59.7834L120.104 48.4666L117.747 45.2347L102.228 56.5515L104.585 59.7834ZM107.432 39.2405L101.504 57.5515L105.31 58.7834L111.237 40.4724L107.432 39.2405ZM92.6373 30.1555L108.156 41.4724L110.513 38.2405L94.9942 26.9236L92.6373 30.1555ZM112.998 26.5396H93.8158V30.5396H112.998V26.5396ZM117.023 9.61255L111.095 27.9236L114.901 29.1555L120.828 10.8445L117.023 9.61255ZM29.7596 70.8445L35.6872 89.1555L39.4927 87.9236L33.5652 69.6126L29.7596 70.8445ZM27.6376 89.1555L33.5652 70.8445L29.7596 69.6126L23.832 87.9236L27.6376 89.1555ZM6.55278 90.5396H25.7348V86.5396H6.55278V90.5396ZM23.2498 98.2405L7.73121 86.9236L5.37435 90.1555L20.8929 101.472L23.2498 98.2405ZM18.0466 118.783L23.9742 100.472L20.1686 99.2405L14.241 117.552L18.0466 118.783ZM30.484 105.235L14.9654 116.552L17.3222 119.783L32.8408 108.467L30.484 105.235ZM48.3594 116.552L32.8408 105.235L30.484 108.467L46.0025 119.783L48.3594 116.552ZM39.3506 100.472L45.2782 118.783L49.0838 117.552L43.1562 99.2405L39.3506 100.472ZM55.5936 86.9236L40.075 98.2405L42.4318 101.472L57.9504 90.1555L55.5936 86.9236ZM37.59 90.5396H56.772V86.5396H37.59V90.5396ZM146.168 87.9236L140.24 69.6126L136.435 70.8445L142.362 89.1555L146.168 87.9236ZM163.447 86.5396H144.265V90.5396H163.447V86.5396ZM149.107 101.472L164.626 90.1555L162.269 86.9236L146.75 98.2405L149.107 101.472ZM155.759 117.552L149.831 99.2405L146.026 100.472L151.953 118.783L155.759 117.552ZM137.159 108.467L152.678 119.783L155.035 116.552L139.516 105.235L137.159 108.467ZM123.997 119.783L139.516 108.467L137.159 105.235L121.641 116.552L123.997 119.783ZM126.844 99.2405L120.916 117.552L124.722 118.783L130.649 100.472L126.844 99.2405ZM112.05 90.1555L127.568 101.472L129.925 98.2405L114.406 86.9236L112.05 90.1555ZM132.41 86.5396H113.228V90.5396H132.41V86.5396ZM136.435 69.6126L130.507 87.9236L134.313 89.1555L140.24 70.8445L136.435 69.6126ZM83.0972 109.844L89.0248 128.156L92.8304 126.924L86.9028 108.613L83.0972 109.844ZM80.9752 128.156L86.9028 109.844L83.0972 108.613L77.1696 126.924L80.9752 128.156ZM59.8904 129.54H79.0724V125.54H59.8904V129.54ZM76.5874 137.24L61.0688 125.924L58.712 129.156L74.2306 140.472L76.5874 137.24ZM71.3842 157.783L77.3118 139.472L73.5062 138.24L67.5786 156.552L71.3842 157.783ZM83.8216 144.235L68.303 155.552L70.6598 158.783L86.1784 147.467L83.8216 144.235ZM101.697 155.552L86.1784 144.235L83.8216 147.467L99.3402 158.783L101.697 155.552ZM92.6882 139.472L98.6158 157.783L102.421 156.552L96.4938 138.24L92.6882 139.472ZM108.931 125.924L93.4126 137.24L95.7694 140.472L111.288 129.156L108.931 125.924ZM90.9276 129.54H110.11V125.54H90.9276V129.54Z" fill="white" mask="url(#path-1-inside-1_110_478)"/>
</svg>
