<svg width="170" height="171" viewBox="0 0 170 171" fill="none" xmlns="http://www.w3.org/2000/svg">
<path fill-rule="evenodd" clip-rule="evenodd" d="M59.5485 13.682L63.0219 24.3922H74.2622L65.1686 31.0115L68.6421 41.7218L59.5485 35.1025L50.4549 41.7218L53.9283 31.0115L44.8347 24.3922H56.075L59.5485 13.682ZM35.5941 43.682L39.7398 56.4652H53.1556L42.302 64.3656L46.4477 77.1488L35.5941 69.2484L24.7404 77.1488L28.8862 64.3656L18.0325 56.4652H31.4484L35.5941 43.682ZM138.552 56.4652L134.406 43.682L130.26 56.4652H116.844L127.698 64.3656L123.552 77.1488L134.406 69.2484L145.26 77.1488L141.114 64.3656L151.967 56.4652H138.552ZM110.451 13.682L113.925 24.3922H125.165L116.072 31.0115L119.545 41.7218L110.451 35.1025L101.358 41.7218L104.831 31.0115L95.7378 24.3922H106.978L110.451 13.682ZM90.3777 48.6111L84.9996 31.682L79.6215 48.6111H62.2176L76.2977 59.0738L70.9196 76.0029L84.9996 65.5402L99.0796 76.0029L93.7015 59.0738L107.782 48.6111H90.3777Z" fill="white"/>
</svg>
