<?xml version="1.0" encoding="utf-8"?>
<!-- Generator: Adobe Illustrator 27.5.0, SVG Export Plug-In . SVG Version: 6.00 Build 0)  -->
<svg version="1.1" id="Layer_1" xmlns="http://www.w3.org/2000/svg" xmlns:xlink="http://www.w3.org/1999/xlink" x="0px" y="0px"
	 viewBox="0 0 83.7 62.8" style="enable-background:new 0 0 83.7 62.8;" xml:space="preserve">
<polygon points="3.9,52 52.6,48.3 37.8,7.8 0,41.5 "/>
<path d="M19.4,60.8l-4.2,1.9c-1,0.4-2,0.1-2.1-0.8l-2.9-16.2c-0.2-0.9,0.5-2,1.5-2.5l4.2-1.9c1-0.4,2-0.1,2.1,0.8l2.9,16.2
	C21.1,59.2,20.4,60.3,19.4,60.8z"/>
<rect x="48.7" y="1" transform="matrix(0.9396 -0.3421 0.3421 0.9396 -5.4254 19.5129)" width="7.7" height="48.2"/>
<path d="M60.7,26.5c0,4.2-1.8,7.9-4.8,10.4c-0.5,0.5-1.7,1.3-1.7,1.3l-9.5-25.3c0,0,1.4-0.2,2.2-0.2C54.5,12.7,60.7,18.9,60.7,26.5z
	"/>
<circle cx="57.8" cy="27.9" r="0.3"/>
<g>
	<path d="M67.6,25.4c0,0.3,0,0.6,0,0.9c-0.1,1.5-0.3,3-0.7,4.5l16.1,2l0.7-5.4L67.6,25.4z"/>
	<path d="M67.4,22.5l15.2-4.9l-1.7-5.1l-15.3,5C66.5,19,67.1,20.7,67.4,22.5z"/>
	<path d="M64.2,15.1L76.1,4l-3.7-4L60.4,11.2C61.8,12.3,63.1,13.6,64.2,15.1z"/>
</g>
</svg>
