<svg width="170" height="170" viewBox="0 0 170 170" fill="none" xmlns="http://www.w3.org/2000/svg">
<path fill-rule="evenodd" clip-rule="evenodd" d="M51.874 31.457L48.5 21.073L45.1261 31.457H34.2077L43.0408 37.8746L39.6669 48.2586L48.5 41.841L57.3332 48.2586L53.9592 37.8746L62.7924 31.457H51.874ZM68.9477 29.457L56.3104 38.6386L61.1374 53.4947L48.5 44.3131L35.8626 53.4947L40.6897 38.6386L28.0523 29.457H43.673L48.5 14.6008L53.3271 29.457H68.9477ZM91.4997 73.0462L85.5864 54.7791L79.673 73.0462H60.5115L76.0135 84.351L70.0971 102.627L85.5864 91.332L101.076 102.627L95.1593 84.351L110.661 73.0462H91.4997ZM116.798 71.0462L97.5082 85.1133L104.876 107.874L85.5864 93.8073L66.2964 107.874L73.6645 85.1133L54.3745 71.0462H78.2183L85.5864 48.2852L92.9545 71.0462H116.798ZM126.327 29.457L121.5 14.6008L116.673 29.457H101.052L113.69 38.6386L108.863 53.4947L121.5 44.3131L134.137 53.4947L129.31 38.6386L141.948 29.457H126.327ZM135.792 31.457H124.874L121.5 21.073L118.126 31.457H107.208L116.041 37.8746L112.667 48.2586L121.5 41.841L130.333 48.2586L126.959 37.8746L135.792 31.457ZM55.8637 128.802L52.5 118.209L49.1363 128.802H38.0947L47.0275 135.443L43.6454 146.095L52.5 139.512L61.3547 146.095L57.9725 135.443L66.9053 128.802H55.8637ZM72.9477 126.802L60.3104 136.198L65.1374 151.399L52.5 142.004L39.8626 151.399L44.6897 136.198L32.0523 126.802H47.673L52.5 111.601L57.3271 126.802H72.9477ZM122.327 126.802L117.5 111.601L112.673 126.802H97.0523L109.69 136.198L104.863 151.399L117.5 142.004L130.137 151.399L125.31 136.198L137.948 126.802H122.327ZM131.905 128.802H120.864L117.5 118.209L114.136 128.802H103.095L112.028 135.443L108.645 146.095L117.5 139.512L126.355 146.095L122.972 135.443L131.905 128.802ZM30.4966 82.457L27 71.9401L23.5034 82.457H12.3482L21.3729 88.8648L17.8952 99.3249L27 92.8602L36.1048 99.3249L32.6271 88.8648L41.6519 82.457H30.4966ZM47.9233 80.457L34.992 89.6386L39.9313 104.495L27 95.3131L14.0687 104.495L19.0081 89.6386L6.07678 80.457H22.0607L27 65.6008L31.9393 80.457H47.9233ZM147.939 80.457L143 65.6008L138.061 80.457H122.077L135.008 89.6386L130.069 104.495L143 95.3131L155.931 104.495L150.992 89.6386L163.923 80.457H147.939ZM157.652 82.457H146.497L143 71.9401L139.503 82.457H128.348L137.373 88.8648L133.895 99.3249L143 92.8602L152.105 99.3249L148.627 88.8648L157.652 82.457Z" fill="white"/>
</svg>
