<?xml version="1.0" encoding="utf-8"?>
<!-- Generator: Adobe Illustrator 27.5.0, SVG Export Plug-In . SVG Version: 6.00 Build 0)  -->
<svg version="1.1" id="Layer_1" xmlns="http://www.w3.org/2000/svg" xmlns:xlink="http://www.w3.org/1999/xlink" x="0px" y="0px"
	 viewBox="0 0 120 120" style="enable-background:new 0 0 120 120;" xml:space="preserve">
<style type="text/css">
	.st0{clip-path:url(#SVGID_00000062913888427937634400000002042044800965104819_);}
</style>
<g>
	<defs>
		<rect id="SVGID_1_" width="120" height="120"/>
	</defs>
	<clipPath id="SVGID_00000047753893780612068500000009407391588644952244_">
		<use xlink:href="#SVGID_1_"  style="overflow:visible;"/>
	</clipPath>
	<g id="a" style="clip-path:url(#SVGID_00000047753893780612068500000009407391588644952244_);">
		<path d="M65.4,65.6c3.5,14.3,1.7,24.9-5.2,31.8c-5.3,5.3-11.4,7.9-18.2,7.8s-12.9-2.9-18.5-8.5c-5.1-4.9-8-11.6-8.2-18.7
			c-0.4-6.9,2.2-13.6,7.2-18.4c7.6-7.6,18.3-9.4,31.9-5.5c-3.5-14.1-1.8-24.7,5.2-31.6c5.4-5.4,11.4-8,18.2-7.9
			c6.8,0.1,13,2.9,18.5,8.5c5.1,4.9,8,11.6,8.2,18.6c0.4,6.9-2.3,13.7-7.3,18.5C90.1,67.6,79.4,69.4,65.4,65.6z M63.1,56.9
			c12.6,4.2,22,3.2,28-2.9c3.5-3.5,5.2-7.5,4.9-12c-0.2-4.5-2.3-8.6-6.1-12.4c-3.2-3.4-7.6-5.5-12.3-5.7c-4.5-0.2-8.8,1.5-11.9,4.7
			C60.1,34.3,59.3,43.7,63.1,56.9z M56.8,63c-12.7-4.2-22.1-3.3-28.2,2.8c-3.4,3.1-5.2,7.6-4.9,12.1c0.3,4.5,2.4,8.7,6.2,12.5
			c3.2,3.4,7.5,5.4,12.1,5.6c4.5,0.2,8.9-1.6,11.9-4.9C59.7,85.5,60.6,76.1,56.8,63L56.8,63z"/>
	</g>
</g>
</svg>
