<svg xmlns="http://www.w3.org/2000/svg" xmlns:xlink="http://www.w3.org/1999/xlink" width="120" height="120" viewBox="0 0 120 120"><defs><clipPath id="b"><rect width="120" height="120"/></clipPath></defs><g id="a" clip-path="url(#b)"><rect width="120" height="120" fill="rgba(255,255,255,0)"/><path d="M52.443,24.832Q40.936,43.667,26.279,43.667q-11.3,0-18.39-7.294T.8,17.3A26.845,26.845,0,0,1,8.2-1.708,23.809,23.809,0,0,1,26.279-9.619q16.164,0,26.437,18.7,11.232-18.7,26.026-18.7,11.369,0,18.493,7.294t7.123,19.075a26.88,26.88,0,0,1-7.4,18.972,23.912,23.912,0,0,1-18.219,7.945Q63.264,43.667,52.443,24.832Zm4.452-7.808q8.972,17.808,21.849,17.808,7.465,0,11.952-4.966T95.181,16.75A18.105,18.105,0,0,0,90.524,4.011a15.308,15.308,0,0,0-11.78-5.068Q66.894-1.058,56.895,17.024Zm-8.7-.137Q39.156-1.058,26.279-1.058a15.157,15.157,0,0,0-12.02,5.137Q9.773,9.216,9.773,17.3A17.751,17.751,0,0,0,14.4,29.832a15.457,15.457,0,0,0,11.883,5Q38.334,34.831,48.2,16.887Z" transform="translate(7.42 41)"/></g></svg>