<?xml version="1.0" encoding="utf-8"?>
<!-- Generator: Adobe Illustrator 27.5.0, SVG Export Plug-In . SVG Version: 6.00 Build 0)  -->
<svg version="1.1" id="Layer_1" xmlns="http://www.w3.org/2000/svg" xmlns:xlink="http://www.w3.org/1999/xlink" x="0px" y="0px"
	 viewBox="0 0 40 40" style="enable-background:new 0 0 40 40;" xml:space="preserve">
<style type="text/css">
	.st0{opacity:0.4;fill:#FFFFFF;}
	.st1{fill:#FFFFFF;}
</style>
<g>
	<path class="st0" d="M34.6,25.2c1.4-1.3,2.8-2.6,2.8-5.2s-1.4-3.9-2.8-5.2C33.2,13.6,32,12.4,32,10s1.3-3.6,2.6-4.8
		c1.4-1.3,2.8-2.6,2.8-5.2H23c0,2.6,1.4,3.9,2.8,5.2c1.3,1.2,2.6,2.4,2.6,4.8s-1.3,3.6-2.6,4.8C24.4,16.1,23,17.4,23,20
		s1.4,3.9,2.8,5.2c1.3,1.2,2.6,2.4,2.6,4.8s-1.3,3.6-2.6,4.8C24.4,36.1,23,37.4,23,40h14.4c0-2.6-1.4-3.9-2.8-5.2
		C33.2,33.6,32,32.4,32,30S33.2,26.4,34.6,25.2z"/>
	<path class="st0" d="M14.2,5.2C15.6,3.9,17,2.6,17,0H2.6c0,2.6,1.4,3.9,2.8,5.2C6.8,6.4,8,7.6,8,10s-1.3,3.6-2.6,4.8
		c-1.4,1.3-2.8,2.6-2.8,5.2s1.4,3.9,2.8,5.2C6.8,26.4,8,27.6,8,30s-1.3,3.6-2.6,4.8c-1.4,1.3-2.8,2.6-2.8,5.2H17
		c0-2.6-1.4-3.9-2.8-5.2c-1.3-1.2-2.6-2.4-2.6-4.8s1.3-3.6,2.6-4.8c1.4-1.3,2.8-2.6,2.8-5.2s-1.4-3.9-2.8-5.2
		c-1.3-1.2-2.6-2.4-2.6-4.8S12.9,6.4,14.2,5.2z"/>
</g>
<path class="st1" d="M45,23.3"/>
</svg>
