<?xml version="1.0" encoding="utf-8"?>
<!-- Generator: Adobe Illustrator 27.5.0, SVG Export Plug-In . SVG Version: 6.00 Build 0)  -->
<svg version="1.1" id="Layer_1" xmlns="http://www.w3.org/2000/svg" xmlns:xlink="http://www.w3.org/1999/xlink" x="0px" y="0px"
	 viewBox="0 0 120 120" style="enable-background:new 0 0 120 120;" xml:space="preserve">
<path d="M108.8,56.1V9.4c0,0-9.2-5.6-25.1,8.4c-7-3.9-15.1-6.1-23.7-6.1s-16.7,2.2-23.7,6.1c-15.9-14-25.1-8.4-25.1-8.4v47l0,0
	c-0.1,1.4-0.2,2.8-0.2,4.3c0,27.1,21.9,49,49,49s49-21.9,49-49C109,59.2,108.9,57.6,108.8,56.1z M26.8,65.4
	c-3.2-3.2-4.3-7.8-3.3-11.9c0.2,1.9,1,3.7,2.4,5.1c3.3,3.3,8.6,3.3,11.9,0s3.3-8.6,0-11.9c-1.4-1.4-3.2-2.2-5.1-2.4
	c4.1-1,8.7,0.1,11.9,3.3c4.9,4.9,4.9,12.9,0,17.8C39.7,70.3,31.8,70.3,26.8,65.4z M76.3,91.5c-1.6,4.3-6.3,6.5-10.6,4.9
	c-2.1-0.8-3.8-2.4-4.6-4.3c-0.9,1.9-2.5,3.5-4.6,4.3c-4.3,1.6-9-0.6-10.6-4.9v-0.1c0.5,0.1,1.1,0.1,1.6,0.1h0.1
	c1.5,3.1,5.1,4.6,8.3,3.4c3.5-1.3,5.2-5.1,4-8.6c-0.4-1.2-1.2-2.1-2.1-2.9v-1.8h6.6v1.7l0,0c-0.9,0.7-1.6,1.7-2.1,2.9
	c-1.3,3.5,0.5,7.3,4,8.6c3.3,1.2,6.8-0.3,8.3-3.4h0.1C75.2,91.5,75.8,91.5,76.3,91.5C76.3,91.4,76.3,91.4,76.3,91.5z M93.1,65.4
	c-4.9,4.9-12.9,4.9-17.8,0c-3.2-3.2-4.3-7.8-3.3-11.9c0.2,1.9,1,3.7,2.4,5.1c3.3,3.3,8.6,3.3,11.9,0s3.3-8.6,0-11.9
	c-1.4-1.4-3.2-2.2-5.1-2.4c4.1-1,8.7,0.1,11.9,3.3C98.1,52.5,98.1,60.4,93.1,65.4z"/>
</svg>
