<?xml version="1.0" encoding="utf-8"?>
<!-- Generator: Adobe Illustrator 27.5.0, SVG Export Plug-In . SVG Version: 6.00 Build 0)  -->
<svg version="1.1" id="Layer_1" xmlns="http://www.w3.org/2000/svg" xmlns:xlink="http://www.w3.org/1999/xlink" x="0px" y="0px"
	 viewBox="0 0 120 120" style="enable-background:new 0 0 120 120;" xml:space="preserve">
<path d="M109.4,19.3c0-6-6.8-6.1-18.6,6.3L87,19.1c-0.9-1.6-2.5-2.5-4.3-2.5H37.5c-1.8,0-3.4,1-4.3,2.5l-3.9,6.7
	c-11.9-12.6-18.7-12.5-18.7-6.5c0,6.7-4.3,38.1-0.1,43.6c0,0,0,0.1,0.1,0.1l22.6,39c0.9,1.6,2.5,2.5,4.3,2.5h45.2
	c1.8,0,3.4-1,4.3-2.5l22.6-39c0.3-0.4,0.4-0.9,0.5-1.4C113.2,53.8,109.4,25.6,109.4,19.3z M26,51.2c2-4.1,6-6.6,10.2-7
	c-1.7,0.8-3.2,2.2-4,3.9c-2,4.2-0.3,9.2,3.9,11.2s9.2,0.3,11.2-3.9c0.9-1.8,1-3.7,0.6-5.6c2.3,3.5,2.7,8.3,0.8,12.3
	c-3,6.2-10.6,8.8-16.8,5.8C25.5,65,22.9,57.5,26,51.2z M76.1,88.7c-1.6,4.3-6.3,6.5-10.6,4.9c-2.1-0.8-3.8-2.4-4.6-4.3
	c-0.9,1.9-2.5,3.5-4.6,4.3c-4.3,1.6-9-0.6-10.6-4.9v-0.1c0.5,0.1,1.1,0.1,1.6,0.1h0.1c1.5,3.1,5.1,4.6,8.3,3.4
	c3.5-1.3,5.2-5.1,4-8.6c-0.4-1.2-1.2-2.1-2.1-2.9v-1.8h6.6v1.7l0,0c-0.9,0.7-1.6,1.7-2.1,2.9c-1.3,3.5,0.5,7.3,4,8.6
	c3.3,1.2,6.8-0.3,8.3-3.4h0.1C75.1,88.8,75.6,88.7,76.1,88.7C76.2,88.7,76.2,88.7,76.1,88.7z M73.2,65.7c-4.9-4.9-4.9-12.9,0-17.8
	c3.3-3.3,7.8-4.4,12-3.3c-1.8,0.1-3.7,1-5.1,2.4c-3.3,3.3-3.3,8.6,0,11.9c3.3,3.3,8.6,3.3,11.9,0c1.4-1.4,2.3-3.3,2.4-5.1
	c1.1,4.2-0.1,8.7-3.3,12C86.1,70.5,78.1,70.6,73.2,65.7z"/>
</svg>
