<?xml version="1.0" encoding="utf-8"?>
<!-- Generator: Adobe Illustrator 27.5.0, SVG Export Plug-In . SVG Version: 6.00 Build 0)  -->
<svg version="1.1" id="Layer_1" xmlns="http://www.w3.org/2000/svg" xmlns:xlink="http://www.w3.org/1999/xlink" x="0px" y="0px"
	 viewBox="0 0 120 120" style="enable-background:new 0 0 120 120;" xml:space="preserve">
<path d="M110.4,15.7c-2.8,1.9-20.8,1.1-23.3,1.1H33c-2.5,0-20.6,0.8-23.3-1.1C0.6,9.6,18,50.6,18,50.6v8v41.2c0,2.8,2.2,5,5,5h74
	c2.8,0,5-2.2,5-5V58.6v-8C102,50.6,119.4,9.6,110.4,15.7z M40.3,54.4c-4.6,0-8.4,3.8-8.4,8.4c0,2,0.7,3.9,1.9,5.3
	c-3.7-2.2-6.1-6.2-6.1-10.8c0-7,5.6-12.6,12.6-12.6s12.6,5.6,12.6,12.6c0,4.6-2.4,8.6-6.1,10.8c1.2-1.4,1.9-3.3,1.9-5.3
	C48.6,58.2,44.9,54.4,40.3,54.4z M74.4,89.9c-1.6,4.3-6.3,6.5-10.6,4.9c-2.1-0.8-3.8-2.4-4.6-4.3c-0.9,1.9-2.5,3.5-4.6,4.3
	c-4.3,1.6-9-0.6-10.6-4.9v-0.1c0.5,0.1,1.1,0.1,1.6,0.1h0.1c1.5,3.1,5.1,4.6,8.3,3.4c3.5-1.3,5.2-5.1,4-8.6
	c-0.4-1.2-1.2-2.1-2.1-2.9V80h6.6v1.7l0,0c-0.9,0.7-1.6,1.7-2.1,2.9c-1.3,3.5,0.5,7.3,4,8.6c3.3,1.2,6.8-0.3,8.3-3.4h0.1
	C73.4,90,73.9,89.9,74.4,89.9C74.5,89.9,74.4,89.9,74.4,89.9z M86.2,68.2c1.2-1.4,1.9-3.3,1.9-5.3c0-4.6-3.8-8.4-8.4-8.4
	s-8.4,3.8-8.4,8.4c0,2,0.7,3.9,1.9,5.3c-3.7-2.2-6.1-6.2-6.1-10.8c0-7,5.6-12.6,12.6-12.6s12.6,5.6,12.6,12.6
	C92.3,62,89.9,66,86.2,68.2z"/>
</svg>
